<svg id="Activities-iocn" xmlns="http://www.w3.org/2000/svg" xmlns:xlink="http://www.w3.org/1999/xlink" width="25.043" height="25.053" viewBox="0 0 25.043 25.053">
  <defs>
    <clipPath id="clip-path">
      <rect id="Rectangle_3941" data-name="Rectangle 3941" width="25.043" height="25.053"/>
    </clipPath>
  </defs>
  <g id="Group_3414" data-name="Group 3414" transform="translate(0 0)" clip-path="url(#clip-path)">
    <path id="Path_1119" data-name="Path 1119" d="M27.792,0a2.474,2.474,0,0,1,1.2.553,2.1,2.1,0,0,1,.665,2.214,2.074,2.074,0,0,1-1.78,1.593,5.416,5.416,0,0,1-.7,0,.362.362,0,0,0-.235.071Q25.2,6.309,23.476,8.193a.239.239,0,0,0-.026.053,2.157,2.157,0,0,1,.39,1.635A2.1,2.1,0,0,1,22.3,11.635a2.07,2.07,0,0,1-2.23-.6A2.1,2.1,0,0,1,19.54,9.04a.308.308,0,0,0-.1-.252c-.75-.574-1.511-1.136-2.263-1.708a.256.256,0,0,0-.325-.018,2.1,2.1,0,0,1-2.1,0,.255.255,0,0,0-.325.028q-1.12.849-2.25,1.685a.245.245,0,0,0-.107.3,2.187,2.187,0,1,1-4.3.775A2.088,2.088,0,0,1,8.7,7.733a2.08,2.08,0,0,1,2.287-.112.256.256,0,0,0,.325-.027c.753-.571,1.513-1.133,2.263-1.708a.307.307,0,0,0,.091-.254,2.191,2.191,0,1,1,4.267-.994,5.194,5.194,0,0,1,.009.99.368.368,0,0,0,.09.257c.757.58,1.523,1.147,2.282,1.723a.238.238,0,0,0,.3.013,2.086,2.086,0,0,1,1.414-.246.3.3,0,0,0,.237-.058c1.171-1.259,2.335-2.524,3.494-3.781a5.455,5.455,0,0,1-.316-.7,2.178,2.178,0,0,1,1.762-2.8A.46.46,0,0,0,27.3,0Z" transform="translate(-6.219 -0.001)"/>
    <path id="Path_1120" data-name="Path 1120" d="M0,120.057a.945.945,0,0,1,.986-.545q11.578.014,23.155.007c.462,0,.729.148.853.471a.731.731,0,0,1-.609.99,2.888,2.888,0,0,1-.318.006q-11.541,0-23.082.007A.944.944,0,0,1,0,120.448Z" transform="translate(0 -95.94)"/>
    <path id="Path_1121" data-name="Path 1121" d="M101.37,57.937h-4.4v-.269q0-6.062,0-12.125c0-.637.267-.9.908-.9.9,0,1.793,0,2.689,0a.738.738,0,0,1,.8.807q0,6.16,0,12.321c0,.048,0,.1-.007.167" transform="translate(-77.848 -35.835)"/>
    <path id="Path_1122" data-name="Path 1122" d="M41.844,69.881H37.45v-.26q0-4.608,0-9.215c0-.609.272-.884.876-.885.9,0,1.809,0,2.713,0a.739.739,0,0,1,.813.8q0,4.718,0,9.435c0,.032,0,.065-.008.125" transform="translate(-30.063 -47.781)"/>
    <path id="Path_1123" data-name="Path 1123" d="M71.615,81.83h-4.4v-.269q0-3.128,0-6.256c0-.636.267-.9.908-.9q1.32,0,2.639,0a.755.755,0,0,1,.855.856q0,3.177,0,6.354Z" transform="translate(-53.955 -59.728)"/>
    <path id="Path_1124" data-name="Path 1124" d="M12.091,87.8h-4.4v-.255q0-2.407,0-4.814c0-.619.272-.887.9-.887q1.332,0,2.664,0a.75.75,0,0,1,.841.845q0,2.443,0,4.887V87.8" transform="translate(-6.172 -65.7)"/>
  </g>
</svg>
