<svg xmlns="http://www.w3.org/2000/svg" width="33.626" height="33.637" viewBox="0 0 33.626 33.637">
  <g id="auction-count" transform="translate(-1201 -657.669)">
    <path id="Path_29056" data-name="Path 29056" d="M2185.754,783.868c-.474-.064-.95-.12-1.422-.195a16.551,16.551,0,0,1-10.1-5.55,16.17,16.17,0,0,1-4.01-8.75,16.8,16.8,0,0,1,25.211-16.775c.61.36,1.191.774,1.767,1.19a1.4,1.4,0,1,1-1.643,2.266,14.926,14.926,0,0,0-3.849-2.148,14.06,14.06,0,0,0-5.994-.8,13.653,13.653,0,0,0-6.551,2.272,13.972,13.972,0,0,0-4.036,4.075,13.548,13.548,0,0,0-2.074,5.368,13.757,13.757,0,0,0,1.585,9.026,13.9,13.9,0,0,0,4.283,4.723,13.927,13.927,0,0,0,14.426.887,14.025,14.025,0,0,0,6.229-18.3,1.443,1.443,0,0,1,.523-2.042,1.392,1.392,0,0,1,1.936.663,15.33,15.33,0,0,1,1.313,3.933c.118.655.183,1.318.275,1.978a2.47,2.47,0,0,0,.061.252v2.233c-.05.4-.094.8-.152,1.2a16.876,16.876,0,0,1-14.123,14.306c-.472.075-.947.13-1.42.195Z" transform="translate(-969.056 -92.562)"/>
    <path id="Path_29057" data-name="Path 29057" d="M2209.584,773.407h.433c1.663,0,3.325,0,4.988,0a1.418,1.418,0,0,1,1.534,1.064,1.394,1.394,0,0,1-1.136,1.72,3.275,3.275,0,0,1-.425.029c-2.2,0-4.4,0-6.6,0a1.416,1.416,0,0,1-1.407-.713,1.939,1.939,0,0,1-.2-.846q-.02-4.759-.006-9.518a1.42,1.42,0,0,1,.939-1.464,1.4,1.4,0,0,1,1.564.451,1.67,1.67,0,0,1,.311,1.111q0,3.857,0,7.713Z" transform="translate(-990.362 -100.324)"/>
  </g>
</svg>
