<svg xmlns="http://www.w3.org/2000/svg" width="18.76" height="18.766" viewBox="0 0 18.76 18.766">
  <g id="Availble-icon" transform="translate(0.2 0.203)">
    <path id="Path_30476" data-name="Path 30476" d="M148.969,76.762l-.265.133-7.791-3.463V64.338l7.616,3.385a.459.459,0,0,0,.373,0l7.616-3.385v3.884a.459.459,0,0,0,.918,0v-4.59a.459.459,0,0,0-.273-.419L148.9,59.541a.459.459,0,0,0-.373,0l-8.262,3.672a.459.459,0,0,0-.273.419v10.1a.459.459,0,0,0,.273.419l8.262,3.672a.459.459,0,0,0,.392-.009l.459-.229a.459.459,0,0,0-.411-.821Zm-.254-9.96-3.247-1.444,7.106-3.158.023-.013,3.25,1.444Zm0-6.34,2.754,1.224L144.4,64.829a.423.423,0,0,0-.053.03l-2.761-1.227Z" transform="translate(-139.995 -59.501)" stroke="#000" stroke-width="0.4"/>
    <path id="Path_30477" data-name="Path 30477" d="M354.59,269.5a4.6,4.6,0,1,0,3.244,1.346A4.59,4.59,0,0,0,354.59,269.5Zm0,8.262a3.676,3.676,0,1,1,2.6-1.077A3.672,3.672,0,0,1,354.59,277.762Z" transform="translate(-340.82 -260.32)" stroke="#000" stroke-width="0.4"/>
    <path id="Path_30478" data-name="Path 30478" d="M411.48,343.141l-1.97,1.971-.823-.823h0a.459.459,0,0,0-.649.649l1.147,1.148h0a.459.459,0,0,0,.649,0l2.295-2.295a.459.459,0,0,0-.649-.649Z" transform="translate(-396.199 -330.614)" stroke="#000" stroke-width="0.4"/>
  </g>
</svg>
