<svg xmlns="http://www.w3.org/2000/svg" width="26.388" height="37.152" viewBox="0 0 26.388 37.152">
  <g id="bid" transform="translate(-1529.774 -990.835)">
    <path id="Path_29058" data-name="Path 29058" d="M1543.55,1027.987h-1.16c-.03-.019-.058-.051-.089-.056a3.917,3.917,0,0,1-3.239-4.071c.03-2.043.006-4.087.006-6.13v-.422c-.365,0-.688,0-1.011,0a3.365,3.365,0,0,1-2.563-1.056c-1.569-1.593-3.157-3.167-4.74-4.746a3.192,3.192,0,0,1-.979-2.372q.016-5.024,0-10.048a3.274,3.274,0,0,1,1.006-2.435q2.394-2.4,4.772-4.816a3.21,3.21,0,0,1,2.4-1q4.983.015,9.965,0a3.335,3.335,0,0,1,2.525,1.047q2.1,2.151,4.238,4.273a4.6,4.6,0,0,1,1.484,2.3v11.318a4.965,4.965,0,0,1-1.591,2.355c-1.33,1.3-2.659,2.605-3.942,3.951a3.654,3.654,0,0,1-3,1.228c-.246-.014-.493,0-.754,0v.5c0,2.067.017,4.134-.006,6.2a3.82,3.82,0,0,1-2.332,3.654A8.232,8.232,0,0,1,1543.55,1027.987Zm-.6-12.883c1.655,0,3.309-.005,4.963,0a1.3,1.3,0,0,0,1-.41q2.319-2.345,4.663-4.666a1.316,1.316,0,0,0,.422-1q-.01-4.949,0-9.9a1.29,1.29,0,0,0-.4-.968q-2.354-2.362-4.693-4.738a1.343,1.343,0,0,0-1.031-.421q-4.89.012-9.781,0a1.382,1.382,0,0,0-1.06.44q-2.322,2.367-4.667,4.712a1.324,1.324,0,0,0-.411,1q.011,4.931,0,9.863a1.313,1.313,0,0,0,.415,1q2.317,2.3,4.61,4.616a1.479,1.479,0,0,0,1.156.471C1539.734,1015.094,1541.34,1015.1,1542.946,1015.1Zm-1.681,2.22v.406q0,3.062,0,6.123a4.322,4.322,0,0,0,.026.506,1.7,1.7,0,0,0,3.38-.4c.006-2.1,0-4.2,0-6.3,0-.106-.013-.212-.02-.33Z" transform="translate(0 0)"/>
    <path id="Path_29059" data-name="Path 29059" d="M1545.821,1014.381c.433.025.871.015,1.3.082a2.925,2.925,0,0,1,2,4.523.332.332,0,0,0-.015.439,2.936,2.936,0,0,1-2.4,4.588c-.615.03-1.231.018-1.847,0a1.1,1.1,0,0,1-1.141-1.151q-.015-3.643,0-7.286a1.119,1.119,0,0,1,1.195-1.173c.3,0,.6,0,.906,0Zm.126,2.223v1.5c.488-.045,1.008.169,1.349-.333a.7.7,0,0,0,.006-.819C1546.967,1016.457,1546.45,1016.632,1545.947,1016.6Zm0,3.715v1.5c.494-.049,1.027.177,1.365-.357a.7.7,0,0,0-.021-.818C1546.939,1020.155,1546.429,1020.346,1545.944,1020.319Z" transform="translate(-8.919 -15.066)"/>
    <path id="Path_29060" data-name="Path 29060" d="M1572.679,1019.211c0-1.076.033-2.153-.01-3.228-.041-1.02.361-1.642,1.585-1.566.626.039,1.261-.035,1.883.031a2.563,2.563,0,0,1,2.413,2.466,41.041,41.041,0,0,1,0,4.639,2.607,2.607,0,0,1-2.669,2.482c-.676.018-1.353.013-2.029,0a1.118,1.118,0,0,1-1.17-1.2C1572.673,1021.629,1572.679,1020.42,1572.679,1019.211Zm2.222,2.616c.37,0,.706.012,1.042,0a.417.417,0,0,0,.43-.446q.012-2.139,0-4.279a.425.425,0,0,0-.421-.458c-.344-.023-.692-.005-1.053-.005Z" transform="translate(-27.444 -15.085)"/>
    <path id="Path_29061" data-name="Path 29061" d="M1565.445,1019.261c0,1.2,0,2.394,0,3.591a1.121,1.121,0,0,1-.6,1.078,1.03,1.03,0,0,1-1.129-.081,1.144,1.144,0,0,1-.472-1.007c0-2.394,0-4.788,0-7.182a1.106,1.106,0,1,1,2.2.011C1565.452,1016.868,1565.445,1018.065,1565.445,1019.261Z" transform="translate(-21.413 -15.11)"/>
  </g>
</svg>
