<svg xmlns="http://www.w3.org/2000/svg" width="15.769" height="15.767" viewBox="0 0 15.769 15.767">
  <g id="Category-iocn" transform="translate(1427.79 -1030.206)">
    <path id="Path_29083" data-name="Path 29083" d="M-1420.861,1030.206a.679.679,0,0,1,.437.453.912.912,0,0,1,.023.2q0,3.047,0,6.094a.608.608,0,0,1-.645.645q-3.047,0-6.094,0a.674.674,0,0,1-.65-.463v-6.467a.817.817,0,0,1,.462-.462Zm-.78,6.152v-4.909h-4.909v4.909Z"/>
    <path id="Path_29084" data-name="Path 29084" d="M-1315.582,1030.206c.189.041.381.071.566.125a3.587,3.587,0,0,1,2.682,2.836,3.69,3.69,0,0,1-2.884,4.361,3.706,3.706,0,0,1-4.333-2.791,3.713,3.713,0,0,1,1.587-3.934,3.718,3.718,0,0,1,1.558-.567.419.419,0,0,0,.085-.029Z" transform="translate(-99.768)"/>
    <path id="Path_29085" data-name="Path 29085" d="M-1427.79,1138.834a.549.549,0,0,0,.036-.061.617.617,0,0,1,1.024-.213c.154.144.3.3.447.445q1.029,1.029,2.056,2.058c.039.039.072.086.114.137.06-.056.1-.092.14-.131q1.236-1.235,2.47-2.471a.625.625,0,0,1,.653-.2.61.61,0,0,1,.323.962,1.423,1.423,0,0,1-.135.147q-1.213,1.214-2.428,2.426a1.32,1.32,0,0,1-.134.1l-.029.072a.6.6,0,0,1,.151.08q1.238,1.232,2.473,2.468a.627.627,0,0,1,.2.652.61.61,0,0,1-.984.308,1.778,1.778,0,0,1-.134-.127q-1.208-1.208-2.416-2.416c-.04-.04-.071-.087-.117-.144-.058.055-.1.092-.137.13q-1.241,1.241-2.482,2.481a.618.618,0,0,1-1.038-.139c-.017-.035-.037-.069-.056-.1v-.308a5.245,5.245,0,0,1,.374-.474q1.156-1.171,2.327-2.328a.6.6,0,0,1,.151-.08,1.2,1.2,0,0,0-.163-.175c-.773-.772-1.547-1.542-2.315-2.319a5.192,5.192,0,0,1-.374-.474Z" transform="translate(0 -99.79)"/>
    <path id="Path_29086" data-name="Path 29086" d="M-1312.188,1142.065q0,1.508,0,3.016a.616.616,0,0,1-.673.68h-6.048a.616.616,0,0,1-.665-.672.73.73,0,0,1,.253-.46l5.169-5.168c.283-.283.567-.564.848-.849a.63.63,0,0,1,.736-.19.635.635,0,0,1,.381.658C-1312.191,1140.074-1312.188,1141.07-1312.188,1142.065Zm-5.256,2.456h4.012v-4.013Z" transform="translate(-99.836 -99.789)"/>
  </g>
</svg>
