<svg xmlns="http://www.w3.org/2000/svg" width="27.458" height="22.579" viewBox="0 0 27.458 22.579">
  <path id="chain-icon" d="M109.593,69.96a2.409,2.409,0,0,0-2.31,1.79h-3.609V69.527a.644.644,0,0,0-.289-.52l-2.454-1.415,1.588-3.609h2.165a2.374,2.374,0,1,0,2.31-2.945,2.409,2.409,0,0,0-2.31,1.79h-2.57a.647.647,0,0,0-.549.346l-1.675,3.84-1.357-.779a.525.525,0,0,0-.577,0l-1.386.78L94.9,63.175a.612.612,0,0,0-.549-.346h-2.57a2.368,2.368,0,1,0,0,1.155h2.165l1.588,3.609-2.454,1.415a.606.606,0,0,0-.289.52V71.75h-3.58a2.359,2.359,0,0,0-4.648.578,2.378,2.378,0,0,0,2.368,2.368,2.35,2.35,0,0,0,2.281-1.79h3.609v2.223a.644.644,0,0,0,.289.52l2.454,1.415-1.588,3.609H91.808a2.374,2.374,0,1,0-2.31,2.945,2.409,2.409,0,0,0,2.31-1.79h2.57a.647.647,0,0,0,.549-.346L96.6,77.64l1.386.78a.557.557,0,0,0,.289.087.488.488,0,0,0,.289-.087l1.386-.78,1.675,3.84a.612.612,0,0,0,.549.346h2.57a2.368,2.368,0,1,0,0-1.155h-2.165l-1.588-3.609,2.454-1.415a.607.607,0,0,0,.289-.52V72.9h3.609a2.375,2.375,0,0,0,4.677-.578,2.429,2.429,0,0,0-2.425-2.367Zm-2.6-7.738a1.2,1.2,0,1,1-1.213,1.184A1.2,1.2,0,0,1,106.994,62.222Zm-17.5,2.4a1.22,1.22,0,0,1-1.213-1.213A1.2,1.2,0,0,1,89.5,62.222a1.2,1.2,0,1,1,0,2.4ZM86.9,73.54a1.213,1.213,0,1,1,0-2.425,1.2,1.2,0,0,1,1.184,1.213A1.178,1.178,0,0,1,86.9,73.54Zm2.6,8.893a1.2,1.2,0,1,1,1.213-1.184A1.2,1.2,0,0,1,89.5,82.432Zm17.5-2.4a1.22,1.22,0,0,1,1.213,1.213,1.2,1.2,0,0,1-1.213,1.184,1.2,1.2,0,1,1,0-2.4ZM98.246,67.419l3.667,2.108-3.667,2.137-3.667-2.108ZM94,70.537l3.667,2.136v4.244L94,74.81Zm4.822,6.381V72.673l3.667-2.108V74.81Zm10.769-3.378a1.213,1.213,0,1,1,0-2.425,1.213,1.213,0,0,1,0,2.425Z" transform="translate(-84.561 -61.038)" fill="#fff"/>
</svg>
