<svg xmlns="http://www.w3.org/2000/svg" width="21.058" height="16.347" viewBox="0 0 21.058 16.347">
  <path id="check-dis" d="M2790.345,1155.39a3.678,3.678,0,0,1,1.448-1.781,1.544,1.544,0,0,1,2.1.2q1.756,1.745,3.5,3.5a3.142,3.142,0,0,1,.208.254l.093.025a1.041,1.041,0,0,1,.129-.212q4.966-4.969,9.937-9.933a1.627,1.627,0,0,1,2.521,0c.194.194.389.386.581.581a1.613,1.613,0,0,1-.008,2.406q-5.149,5.149-10.3,10.3c-.673.673-1.339,1.354-2.025,2.013a4.608,4.608,0,0,1-.666.452h-.452a2.228,2.228,0,0,1-.829-.607q-2.7-2.7-5.4-5.4a2.718,2.718,0,0,1-.842-1.228Z" transform="translate(-2790.345 -1146.849)" fill="#98999d"/>
</svg>
