<svg xmlns="http://www.w3.org/2000/svg" width="20.78" height="20.78" viewBox="0 0 20.78 20.78">
  <g id="collections-icon" transform="translate(-3770.164 -1136.7)">
    <path id="Path_30466" data-name="Path 30466" d="M99.413,236.336h9.5a1.42,1.42,0,0,0,1.417-1.417v-1.386h-1.121v1.386a.3.3,0,0,1-.3.3h-9.5a.3.3,0,0,1-.3-.3v-9.5a.3.3,0,0,1,.3-.3H100.8V224H99.413A1.419,1.419,0,0,0,98,225.421v9.5a1.419,1.419,0,0,0,1.417,1.417Z" transform="translate(3672.469 920.844)" stroke="#050505" stroke-width="0.6"/>
    <path id="Path_30467" data-name="Path 30467" d="M306.338,38.906v-9.5a1.419,1.419,0,0,0-1.417-1.417h-9.5a1.419,1.419,0,0,0-1.417,1.417v9.5a1.419,1.419,0,0,0,1.417,1.417h9.5a1.419,1.419,0,0,0,1.417-1.417Zm-11.211,0v-9.5a.3.3,0,0,1,.3-.3h9.5a.3.3,0,0,1,.3.3v9.5a.3.3,0,0,1-.3.3h-9.5A.3.3,0,0,1,295.127,38.906Z" transform="translate(3484.306 1109.009)" stroke="#050505" stroke-width="0.6"/>
    <path id="Path_30468" data-name="Path 30468" d="M208.333,136.92v-1.386h-1.121v1.386a.3.3,0,0,1-.3.3h-9.5a.3.3,0,0,1-.3-.3v-9.5a.3.3,0,0,1,.3-.3H198.8v-1.121h-1.386A1.419,1.419,0,0,0,196,127.423v9.5a1.418,1.418,0,0,0,1.417,1.417h9.5a1.419,1.419,0,0,0,1.417-1.417Z" transform="translate(3578.387 1014.919)" stroke="#050505" stroke-width="0.6"/>
  </g>
</svg>
