<svg xmlns="http://www.w3.org/2000/svg" xmlns:xlink="http://www.w3.org/1999/xlink" width="40" height="40" viewBox="0 0 40 40">
  <defs>
    <filter id="Path_29052" x="4.225" y="4.16" width="31.549" height="31.397" filterUnits="userSpaceOnUse">
      <feOffset input="SourceAlpha"/>
      <feGaussianBlur stdDeviation="3" result="blur"/>
      <feFlood flood-color="#3c97f2" flood-opacity="0.2"/>
      <feComposite operator="in" in2="blur"/>
      <feComposite in="SourceGraphic"/>
    </filter>
  </defs>
  <g id="cross-button" transform="translate(0 -0.14)">
    <circle id="Ellipse_34" data-name="Ellipse 34" cx="20" cy="20" r="20" transform="translate(0 0.14)" fill="#f5f5f5"/>
    <g transform="matrix(1, 0, 0, 1, 0, 0.14)" filter="url(#Path_29052)">
      <path id="Path_29052-2" data-name="Path 29052" d="M13.549,12.309a2.9,2.9,0,0,1-.2.512,1.248,1.248,0,0,1-1.3.561,1.371,1.371,0,0,1-.841-.429Q9.045,10.788,6.881,8.628c-.037-.037-.069-.08-.112-.13-.051.049-.089.083-.125.119L2.255,13.006A1.443,1.443,0,0,1,.532,13.2a1.257,1.257,0,0,1-.239-1.838c.045-.054.095-.1.145-.154l4.4-4.4a1.369,1.369,0,0,1,.12-.1c-.051-.054-.082-.09-.115-.123l-4.4-4.4A1.28,1.28,0,0,1,2.08.233,1.475,1.475,0,0,1,2.269.4Q4.447,2.561,6.624,4.727c.044.043.084.09.138.147.045-.043.083-.077.119-.112Q9.046,2.6,11.213.43A1.278,1.278,0,0,1,13.37.941a1.209,1.209,0,0,1-.317,1.266Q10.884,4.38,8.711,6.549c-.037.037-.081.068-.133.111.05.052.084.09.12.126q2.158,2.146,4.32,4.289a1.74,1.74,0,0,1,.532.89Z" transform="translate(13.23 13.16)"/>
    </g>
  </g>
</svg>
