<svg xmlns="http://www.w3.org/2000/svg" xmlns:xlink="http://www.w3.org/1999/xlink" width="345" height="55" viewBox="0 0 345 55">
  <defs>
    <clipPath id="clip-path">
      <rect id="Rectangle_1" data-name="Rectangle 1" width="290" height="41" transform="translate(0 0)" fill="none"/>
    </clipPath>
    <clipPath id="clip-Crosstown_beta_Logo_">
      <rect width="345" height="55"/>
    </clipPath>
  </defs>
  <g id="Crosstown_beta_Logo_" data-name="Crosstown beta Logo " clip-path="url(#clip-Crosstown_beta_Logo_)">
    <rect width="345" height="55" fill="#fff"/>
    <g id="Group_73918" data-name="Group 73918" transform="translate(0 7)">
      <g id="Group_73917" data-name="Group 73917" transform="translate(3 -0.494)">
        <g id="Group_1" data-name="Group 1" transform="translate(0 0.494)" clip-path="url(#clip-path)">
          <path id="Path_1" data-name="Path 1" d="M39,11.539V24.008a3.266,3.266,0,0,0,3.247,3.281H57.838V24.9H42.247a.9.9,0,0,1-.9-.905V11.539a.9.9,0,0,1,.9-.905H57.838V8.25H42.247A3.278,3.278,0,0,0,39,11.539" transform="translate(13.704 2.398)"/>
          <path id="Path_2" data-name="Path 2" d="M72.015,8.256H56.424V27.3h2.36V20.16h7.064l5.97,7.135H75.27L69.3,20.16h2.722a3.266,3.266,0,0,0,3.247-3.281V11.547a3.28,3.28,0,0,0-3.255-3.291m.888,8.615a.9.9,0,0,1-.9.905H58.775V10.641h13.23a.9.9,0,0,1,.9.905Z" transform="translate(19.826 2.4)"/>
          <path id="Path_3" data-name="Path 3" d="M89.438,8.256H77.1a3.266,3.266,0,0,0-3.249,3.281V24.006A3.266,3.266,0,0,0,77.1,27.287H89.438a3.265,3.265,0,0,0,3.247-3.281V11.537a3.259,3.259,0,0,0-3.247-3.281m.9,15.75a.9.9,0,0,1-.9.905H77.1a.9.9,0,0,1-.9-.905V11.537a.9.9,0,0,1,.9-.905H89.438a.9.9,0,0,1,.9.905Z" transform="translate(25.948 2.4)"/>
          <path id="Path_4" data-name="Path 4" d="M219.9,16.87V11.537a3.266,3.266,0,0,0-3.249-3.281H201.061V27.3h2.36V20.159h7.064l5.969,7.137H219.9l-5.97-7.137h2.722A3.284,3.284,0,0,0,219.9,16.87m-16.487-6.23h13.23a.9.9,0,0,1,.9.905v5.334a.9.9,0,0,1-.9.905h-13.23Z" transform="translate(70.648 2.4)"/>
          <path id="Path_5" data-name="Path 5" d="M179.817,23.241l-4.58-14.985h-2.6l-4.6,15.011-4.6-15.011h-2.474l5.838,19.031h2.466l4.654-15.2,4.646,15.2h2.484L186.9,8.256H184.43Z" transform="translate(56.561 2.4)"/>
          <path id="Path_6" data-name="Path 6" d="M159.142,8.256H146.8a3.266,3.266,0,0,0-3.247,3.281V24.006a3.266,3.266,0,0,0,3.247,3.281h12.342a3.266,3.266,0,0,0,3.249-3.281V11.537a3.266,3.266,0,0,0-3.249-3.281m.888,15.75a.9.9,0,0,1-.9.905H146.792a.9.9,0,0,1-.9-.905V11.537a.9.9,0,0,1,.9-.905h12.342a.9.9,0,0,1,.9.905Z" transform="translate(50.441 2.4)"/>
          <path id="Path_7" data-name="Path 7" d="M126.123,10.64h8.239V27.288h2.359V10.64h8.239V8.256H126.123Z" transform="translate(44.316 2.4)"/>
          <path id="Path_8" data-name="Path 8" d="M106.862,8.256H94.52a3.267,3.267,0,0,0-3.249,3.281v4.137a3.266,3.266,0,0,0,3.249,3.281h12.342a.9.9,0,0,1,.9.907v4.145a.9.9,0,0,1-.9.905H94.52a.9.9,0,0,1-.9-.905V22.528H91.271v1.478a3.272,3.272,0,0,0,3.249,3.281h12.342a3.266,3.266,0,0,0,3.249-3.281V19.87a3.266,3.266,0,0,0-3.249-3.281H94.52a.9.9,0,0,1-.9-.905V11.545a.9.9,0,0,1,.9-.905h12.342a.9.9,0,0,1,.9.905v1.478h2.361V11.545a3.275,3.275,0,0,0-3.257-3.289" transform="translate(32.07 2.4)"/>
          <path id="Path_9" data-name="Path 9" d="M124.292,8.256H111.948a3.266,3.266,0,0,0-3.247,3.281v4.137A3.276,3.276,0,0,0,109.655,18a3.213,3.213,0,0,0,2.3.964h12.334a.9.9,0,0,1,.9.907v4.137a.9.9,0,0,1-.9.905H111.948a.9.9,0,0,1-.895-.905V22.528h-2.361v1.478a3.265,3.265,0,0,0,3.247,3.281h12.352a3.266,3.266,0,0,0,3.246-3.281V19.87a3.265,3.265,0,0,0-3.246-3.281H111.948a.88.88,0,0,1-.634-.266.9.9,0,0,1-.261-.639V11.545a.9.9,0,0,1,.895-.905h12.343a.9.9,0,0,1,.9.905v1.478h2.361V11.545a3.284,3.284,0,0,0-3.257-3.289" transform="translate(38.192 2.4)"/>
          <path id="Path_10" data-name="Path 10" d="M183.623,17.776v9.512h18.846V24.9H185.983V18.963H200.11V16.58H185.983V10.64h16.487V8.256H183.623Z" transform="translate(64.521 2.4)"/>
          <path id="Path_11" data-name="Path 11" d="M17.213.5l4.108,2.524L18.983,4.287l-1.77-.928L2.623,11.909V21.5L14.4,28.566l-2.426,1.311L0,22.625V10.56Z" transform="translate(0 -0.325)" fill="#3c97f2"/>
          <path id="Path_12" data-name="Path 12" d="M21.583,3.265,4.469,12.955v6.831l2.289,1.3V14.217L21.583,6.075l8.043,4.541v1.819L32.2,13.845V9.255Z" transform="translate(1.57 0.646)" fill="#3c97f2"/>
          <path id="Path_13" data-name="Path 13" d="M13.555,37.135,9.447,34.611l2.338-1.264,1.77.942,14.6-8.564V16.135L16.365,9.082,18.8,7.771l11.965,7.25V27.086Z" transform="translate(3.32 2.229)" fill="#3c97f2"/>
          <path id="Path_14" data-name="Path 14" d="M10.855,31.368l17.126-9.677v-6.83l-2.289-1.312v6.868L10.855,28.558,2.812,24.018V22.2L.239,20.8v4.578Z" transform="translate(0.084 4.259)" fill="#3c97f2"/>
        </g>
      </g>
      <path id="Path_29344" data-name="Path 29344" d="M-35.865-4.6c0,1.069-.75,1.691-1.979,1.691H-40.3V-6.369h2.394A1.8,1.8,0,0,1-35.865-4.6Zm-.287-4.835c0,1.021-.718,1.58-1.9,1.58H-40.3v-3.175h2.25C-36.87-11.028-36.152-10.438-36.152-9.432Zm2.106,5.026a2.758,2.758,0,0,0-2.138-2.713A2.6,2.6,0,0,0-34.3-9.656c0-1.564-1.245-2.856-3.59-2.856H-42.12v11.09h4.436C-35.418-1.422-34.046-2.714-34.046-4.406Zm8.106-8.122h-6.127V-1.422h6.127V-2.906h-4.308V-6.3h3.83V-7.789h-3.83v-3.255h4.308Zm1.66,1.5h2.968v9.606h1.819v-9.606h2.952v-1.484H-24.28ZM-7.222-1.422h1.915L-9.281-12.528h-2.106L-15.36-1.422h1.9l.8-2.266H-8.02Zm-1.308-3.75h-3.622l1.819-5.154Z" transform="translate(347.833 31.422)" stroke="rgba(0,0,0,0)" stroke-width="1"/>
    </g>
  </g>
</svg>
