<svg xmlns="http://www.w3.org/2000/svg" width="25.558" height="29.384" viewBox="0 0 25.558 29.384">
  <g id="ct-user-icon" transform="translate(2332 3883.825)">
    <g id="Group_3487" data-name="Group 3487" transform="translate(-2332 -3883.825)">
      <path id="Path_11" data-name="Path 11" d="M12.906.5l3.08,1.893-1.753.946-1.327-.7L1.967,9.054v7.191l8.832,5.3-1.819.983L0,17.089V8.043Z" transform="translate(0 -0.5)"/>
      <path id="Path_12" data-name="Path 12" d="M17.3,3.265,4.469,10.53v5.122l1.716.974V11.477L17.3,5.372l6.031,3.4V10.14L25.261,11.2V7.756Z" transform="translate(0.059 -0.464)"/>
      <path id="Path_13" data-name="Path 13" d="M12.528,29.788,9.447,27.9l1.753-.947,1.327.706,10.948-6.421V14.042L14.634,8.754l1.828-.983,8.971,5.436v9.046Z" transform="translate(0.125 -0.404)"/>
      <path id="Path_14" data-name="Path 14" d="M8.2,26.909,21.04,19.653V14.532l-1.716-.984V18.7L8.2,24.8,2.168,21.4V20.034L.239,18.986v3.433Z" transform="translate(0.003 -0.327)"/>
    </g>
  </g>
</svg>
