<svg id="dr" xmlns="http://www.w3.org/2000/svg" width="45" height="45" viewBox="0 0 45 45">
  <rect id="Rectangle_8729" data-name="Rectangle 8729" width="45" height="45" rx="10" fill="#1f1f1f"/>
  <path id="Path_29036" data-name="Path 29036" d="M960.726,60.186V57.367c.086-.051.046-.138.054-.209.058-.509.1-1.021.168-1.527a22.71,22.71,0,0,1,3.685-9.379.52.52,0,0,1,.224-.2,22.1,22.1,0,0,1,5.122-1.591.209.209,0,0,1,.264.132c.168.346.36.68.509,1.033a.283.283,0,0,0,.368.2,17.307,17.307,0,0,1,2.425-.193,18.067,18.067,0,0,1,3.066.2.285.285,0,0,0,.362-.209c.142-.337.322-.658.477-.991a.246.246,0,0,1,.32-.157A22.232,22.232,0,0,1,982.749,46a.8.8,0,0,1,.363.3,21.987,21.987,0,0,1,3.779,14.623.366.366,0,0,1-.169.291,22.052,22.052,0,0,1-6.256,3.17.293.293,0,0,1-.4-.132,20.59,20.59,0,0,1-1.1-1.789c-.168-.316-.17-.316.167-.451a13.01,13.01,0,0,0,1.682-.813c.068-.039.2-.058.119-.2a.584.584,0,0,0-.736-.221,15.426,15.426,0,0,1-12.586.038.6.6,0,0,0-.748.083c-.186.17-.131.221.046.318a14.227,14.227,0,0,0,1.757.831c.176.067.221.131.123.314a18.928,18.928,0,0,1-1.18,1.918.251.251,0,0,1-.339.11,22.056,22.056,0,0,1-6.281-3.175.407.407,0,0,1-.174-.315A2.537,2.537,0,0,0,960.726,60.186Zm19.859-4.741a2.694,2.694,0,0,0-.164-1.006,2.258,2.258,0,0,0-3.809-.924,2.863,2.863,0,0,0,.106,3.954,2.162,2.162,0,0,0,2.876.133A2.7,2.7,0,0,0,980.585,55.445Zm-8.72-.064c-.01-.1-.014-.256-.04-.406a3.35,3.35,0,0,0-.126-.521,2.257,2.257,0,0,0-3.837-.913A2.865,2.865,0,0,0,968,57.476a2.161,2.161,0,0,0,3.065-.054A2.81,2.81,0,0,0,971.865,55.381Z" transform="translate(-951.623 -31.616)" fill="#8e8e8e"/>
</svg>
