<svg id="Group_63518" data-name="Group 63518" xmlns="http://www.w3.org/2000/svg" xmlns:xlink="http://www.w3.org/1999/xlink" width="28.327" height="28.321" viewBox="0 0 28.327 28.321">
  <defs>
    <clipPath id="clip-path">
      <rect id="Rectangle_4429" data-name="Rectangle 4429" width="28.327" height="28.321" fill="#fff"/>
    </clipPath>
  </defs>
  <g id="Group_63476" data-name="Group 63476" clip-path="url(#clip-path)">
    <path id="Path_26666" data-name="Path 26666" d="M0,28.211c.166-.763.338-1.525.5-2.29.465-2.225.923-4.451,1.391-6.675a.644.644,0,0,1,.176-.3q8.9-8.909,17.809-17.812A3.781,3.781,0,0,1,22,.049.6.6,0,0,0,22.127,0h.94c.177.042.356.08.532.127a3.806,3.806,0,0,1,1.73.99c.62.618,1.244,1.232,1.857,1.858a3.853,3.853,0,0,1,0,5.469c-.772.792-1.562,1.566-2.344,2.348Q17.173,18.466,9.5,26.143a1.192,1.192,0,0,1-.635.346Q4.433,27.4,0,28.321v-.111M16.6,6.86,4.153,19.305,5.945,21.1,18.388,8.653,16.6,6.86M7.22,22.35l1.826,1.828L21.471,11.753l-1.833-1.82L7.22,22.35m17.8-14.112M2.141,26.183l5.277-1.1L3.237,20.9l-1.1,5.278M23.758,9.46l-4.9-4.909L17.806,5.6l4.9,4.9L23.758,9.46" fill="#fff"/>
  </g>
</svg>
