<svg id="Favourite-icon" xmlns="http://www.w3.org/2000/svg" xmlns:xlink="http://www.w3.org/1999/xlink" width="25.408" height="21.872" viewBox="0 0 25.408 21.872">
  <defs>
    <clipPath id="clip-path">
      <rect id="Rectangle_3955" data-name="Rectangle 3955" width="25.408" height="21.872"/>
    </clipPath>
  </defs>
  <g id="Group_3462" data-name="Group 3462" clip-path="url(#clip-path)">
    <path id="Path_1149" data-name="Path 1149" d="M6.2,0H7.294a.8.8,0,0,0,.138.042,6.883,6.883,0,0,1,4.939,2.872c.111.15.212.308.314.455.025,0,.037,0,.04-.007.038-.053.076-.107.112-.162A6.849,6.849,0,0,1,16.668.31C17.137.166,17.63.1,18.112,0H19.2a1.513,1.513,0,0,0,.188.044,6.27,6.27,0,0,1,4.466,2.471,8.242,8.242,0,0,1,.288,9.184,17.326,17.326,0,0,1-3.336,3.548c-2.643,2.2-5.309,4.372-7.963,6.559a.188.188,0,0,1-.292,0q-3.4-2.794-6.808-5.581a29.121,29.121,0,0,1-3.525-3.267A8.467,8.467,0,0,1,.232,9.371C.13,8.949.076,8.515,0,8.086V6.8c.015-.079.03-.159.046-.238A16.44,16.44,0,0,1,.47,4.581,6.357,6.357,0,0,1,4.9.255C5.322.133,5.767.083,6.2,0"/>
  </g>
</svg>
