<svg id="fb-icon" xmlns="http://www.w3.org/2000/svg" width="45" height="45" viewBox="0 0 45 45">
  <rect id="Rectangle_8729" data-name="Rectangle 8729" width="45" height="45" rx="10" fill="#1f1f1f"/>
  <path id="Path_29029" data-name="Path 29029" d="M572,117.706h-2.23V113.7h2.2c.009-.193.017-.34.021-.487a26.868,26.868,0,0,1,.1-3.1c.342-2.358,1.835-3.654,4.329-3.8,1.224-.072,2.455-.009,3.683-.005a.884.884,0,0,1,.178.046q0,1.764,0,3.526c0,.1-.014.2-.025.339h-2.195c-1.035,0-1.326.289-1.327,1.319,0,.7,0,1.4,0,2.146h3.608c-.138,1.348-.272,2.662-.409,4.01h-3.191v11.391H572Z" transform="translate(-552.774 -95.276)" fill="#98999d"/>
</svg>
