<svg xmlns="http://www.w3.org/2000/svg" xmlns:xlink="http://www.w3.org/1999/xlink" width="62.043" height="62.043" viewBox="0 0 62.043 62.043">
  <defs>
    <linearGradient id="linear-gradient" x1="0.5" x2="0.5" y2="1" gradientUnits="objectBoundingBox">
      <stop offset="0" stop-color="#3014f5"/>
      <stop offset="1" stop-color="#146eb1"/>
    </linearGradient>
    <filter id="Ellipse_53" x="0" y="0" width="62.043" height="62.043" filterUnits="userSpaceOnUse">
      <feOffset dy="6" input="SourceAlpha"/>
      <feGaussianBlur stdDeviation="5" result="blur"/>
      <feFlood flood-opacity="0.141"/>
      <feComposite operator="in" in2="blur"/>
      <feComposite in="SourceGraphic"/>
    </filter>
  </defs>
  <g id="fb" transform="translate(-9300 3762.148)">
    <g transform="matrix(1, 0, 0, 1, 9300, -3762.15)" filter="url(#Ellipse_53)">
      <circle id="Ellipse_53-2" data-name="Ellipse 53" cx="16.021" cy="16.021" r="16.021" transform="translate(15 9)" fill="url(#linear-gradient)"/>
    </g>
    <path id="Path_24776" data-name="Path 24776" d="M571.647,115.878h-1.873v-3.366h1.847c.007-.162.015-.286.018-.409a22.559,22.559,0,0,1,.087-2.606,3.5,3.5,0,0,1,3.637-3.192c1.028-.06,2.063-.008,3.094,0a.741.741,0,0,1,.149.038q0,1.482,0,2.962c0,.083-.012.166-.021.285H576.74c-.869,0-1.114.243-1.115,1.108,0,.589,0,1.177,0,1.8h3.031l-.344,3.369h-2.681v9.57h-3.985Z" transform="translate(8756.573 -3853.324)" fill="#fff"/>
  </g>
</svg>
