<svg xmlns="http://www.w3.org/2000/svg" width="18.287" height="14.063" viewBox="0 0 18.287 14.063">
  <g id="Fiat-Buy-icon" transform="translate(-7513.316 -3337.85)">
    <path id="Path_30641" data-name="Path 30641" d="M96.764,79.779a5.2,5.2,0,0,0-1.956.38,1.405,1.405,0,0,0-.307-.551,1.276,1.276,0,0,0,.35-.856c0-1.491-2.8-2.3-5.426-2.3s-5.426.8-5.426,2.3a1.276,1.276,0,0,0,.349.855,1.216,1.216,0,0,0,0,1.706,1.215,1.215,0,0,0,0,1.707,1.215,1.215,0,0,0,0,1.708,1.279,1.279,0,0,0-.351.853c0,1.491,2.8,2.3,5.426,2.3a12.123,12.123,0,0,0,2.8-.309,5.22,5.22,0,1,0,4.545-7.788Zm-7.34-2.565c2.892,0,4.668.9,4.668,1.538s-1.776,1.538-4.668,1.538-4.668-.9-4.668-1.538S86.532,77.214,89.424,77.214Zm2.124,8.013a11.878,11.878,0,0,1-2.125.184,7.909,7.909,0,0,1-4.289-.985.813.813,0,0,1-.38-.553.577.577,0,0,1,.181-.375,6.468,6.468,0,0,0,2.124.747,12.443,12.443,0,0,0,2.363.216,12.593,12.593,0,0,0,2.169-.18,5.243,5.243,0,0,0-.049.718q0,.115.005.228Zm-2.125,1.892c-2.892,0-4.668-.9-4.668-1.538a.579.579,0,0,1,.181-.375,9.215,9.215,0,0,0,4.487.963,12.684,12.684,0,0,0,2.212-.188,5.173,5.173,0,0,0,.253.885,11.519,11.519,0,0,1-2.465.253Zm2.346-3.642-.128.025a12.5,12.5,0,0,1-4.438,0,5.2,5.2,0,0,1-2.069-.783.812.812,0,0,1-.38-.553.579.579,0,0,1,.179-.374,6.494,6.494,0,0,0,2.119.748,13.106,13.106,0,0,0,4.7.007l.039-.007q.213-.042.413-.09a5.2,5.2,0,0,0-.44,1.027Zm-.084-1.687-.037.007a12.575,12.575,0,0,1-4.45,0,5.2,5.2,0,0,1-2.066-.785.808.808,0,0,1-.378-.551.583.583,0,0,1,.182-.376,10.926,10.926,0,0,0,8.974,0,.582.582,0,0,1,.181.376.37.37,0,0,1,0,.058,5.26,5.26,0,0,0-1.117.9,7.089,7.089,0,0,1-1.284.372Zm5.078,7.673A4.464,4.464,0,1,1,101.227,85,4.469,4.469,0,0,1,96.764,89.463Z" transform="translate(7429.469 3261.543)" stroke="#000" stroke-width="0.3"/>
    <path id="Path_30642" data-name="Path 30642" d="M419.275,230.984a.723.723,0,0,1,0-1.446.715.715,0,0,1,.617.347.379.379,0,0,0,.648-.391,1.485,1.485,0,0,0-.886-.663v-.51a.379.379,0,1,0-.757,0v.509a1.481,1.481,0,0,0,.378,2.912.723.723,0,1,1-.618,1.1.379.379,0,0,0-.647.394,1.474,1.474,0,0,0,.887.664v.509a.379.379,0,1,0,.757,0v-.51a1.48,1.48,0,0,0-.379-2.912Z" transform="translate(7106.957 3115.18)" stroke="#000" stroke-width="0.3"/>
  </g>
</svg>
