<svg xmlns="http://www.w3.org/2000/svg" width="30" height="30" viewBox="0 0 30 30">
  <g id="image-icon" transform="translate(2279 -1002)">
    <circle id="Ellipse_336" data-name="Ellipse 336" cx="15" cy="15" r="15" transform="translate(-2279 1002)" fill="#ededed"/>
    <path id="Path_30622" data-name="Path 30622" d="M101.982,30.419a1.637,1.637,0,1,1-1.564,1.635A1.6,1.6,0,0,1,101.982,30.419Zm0,2.453a.819.819,0,1,0-.782-.818A.8.8,0,0,0,101.982,32.873ZM110,28a.8.8,0,0,1,.8.8V40a.8.8,0,0,1-.8.8H98.8A.8.8,0,0,1,98,40V28.8a.8.8,0,0,1,.8-.8ZM98.8,39.6a.4.4,0,0,0,.118.284A.4.4,0,0,1,98.8,39.6Zm11.2,0V38.4l-2.916-2.916a.4.4,0,0,0-.566,0l-2.351,2.352c-.425.425-.712.419-1.131,0l-.752-.752a.4.4,0,0,0-.566,0l-2.8,2.8A.4.4,0,0,0,99.2,40h10.4a.4.4,0,0,0,.4-.4Zm0-2.332V29.2a.4.4,0,0,0-.4-.4H99.2a.4.4,0,0,0-.4.4v9.669l2.635-2.635a.8.8,0,0,1,1.131,0L103.6,37.27l2.634-2.634a.8.8,0,0,1,1.131,0Z" transform="translate(-2368.399 982.599)" stroke="#050505" stroke-width="0.5"/>
  </g>
</svg>
