<svg id="insta-icon" xmlns="http://www.w3.org/2000/svg" xmlns:xlink="http://www.w3.org/1999/xlink" width="45" height="45" viewBox="0 0 45 45">
  <defs>
    <clipPath id="clip-path">
      <rect id="Rectangle_3700" data-name="Rectangle 3700" width="21.865" height="21.933" fill="#98999d"/>
    </clipPath>
  </defs>
  <rect id="Rectangle_8729" data-name="Rectangle 8729" width="45" height="45" rx="10" fill="#1f1f1f"/>
  <g id="Group_62765" data-name="Group 62765" transform="translate(12 12)">
    <g id="Group_62764" data-name="Group 62764" transform="translate(0 0)" clip-path="url(#clip-path)">
      <path id="Path_25245" data-name="Path 25245" d="M21.865,6.477V15.3c-.012.076-.027.152-.035.229-.046.432-.068.866-.14,1.294a5.824,5.824,0,0,1-1.877,3.506A6.464,6.464,0,0,1,15.8,21.847c-.517.035-1.036.058-1.554.086H7.652c-.134-.012-.268-.03-.4-.034a12.177,12.177,0,0,1-2.611-.267A5.612,5.612,0,0,1,.7,18.473a7.877,7.877,0,0,1-.658-3.331C.013,12.781-.007,10.42,0,8.059A15.177,15.177,0,0,1,.249,4.844,5.637,5.637,0,0,1,3.439.728,7.98,7.98,0,0,1,6.725.062c3.023-.071,6.047-.107,9.069.04a6.928,6.928,0,0,1,2.549.579,5.713,5.713,0,0,1,3.391,4.654c.059.378.088.762.131,1.143M10.943,20v-.034c.578,0,1.156.017,1.734,0,1.246-.045,2.5-.029,3.735-.185a3.572,3.572,0,0,0,3.237-2.863,9.42,9.42,0,0,0,.234-2.076q.056-3.317.033-6.636a22.48,22.48,0,0,0-.158-2.646,3.652,3.652,0,0,0-3.07-3.312,12.676,12.676,0,0,0-2.3-.205q-3.06-.045-6.12-.011a19.906,19.906,0,0,0-2.919.19A3.547,3.547,0,0,0,2.242,5.1a11.574,11.574,0,0,0-.23,2.27q-.061,2.664-.033,5.33c.013,1.218.047,2.441.164,3.653a3.634,3.634,0,0,0,1.749,2.872,4.662,4.662,0,0,0,2.324.645c1.575.058,3.151.084,4.727.122" transform="translate(0 0)" fill="#98999d"/>
      <path id="Path_25246" data-name="Path 25246" d="M15.225,20.922a5.631,5.631,0,1,1,5.641-5.6,5.64,5.64,0,0,1-5.641,5.6m-3.635-5.63a3.648,3.648,0,1,0,3.641-3.651,3.638,3.638,0,0,0-3.641,3.651" transform="translate(-4.291 -4.316)" fill="#98999d"/>
      <path id="Path_25247" data-name="Path 25247" d="M30.614,8.2A1.311,1.311,0,1,1,29.3,6.886,1.306,1.306,0,0,1,30.614,8.2" transform="translate(-12.504 -3.076)" fill="#98999d"/>
    </g>
  </g>
</svg>
