<svg xmlns="http://www.w3.org/2000/svg" xmlns:xlink="http://www.w3.org/1999/xlink" width="62.043" height="62.043" viewBox="0 0 62.043 62.043">
  <defs>
    <linearGradient id="linear-gradient" x1="0.146" y1="0.854" x2="0.854" y2="0.146" gradientUnits="objectBoundingBox">
      <stop offset="0" stop-color="#ffd521"/>
      <stop offset="0.055" stop-color="#ffd020"/>
      <stop offset="0.124" stop-color="#fec01e"/>
      <stop offset="0.2" stop-color="#fca71b"/>
      <stop offset="0.282" stop-color="#fa8316"/>
      <stop offset="0.368" stop-color="#f85510"/>
      <stop offset="0.456" stop-color="#f51e09"/>
      <stop offset="0.5" stop-color="#f30005"/>
      <stop offset="0.503" stop-color="#f20007"/>
      <stop offset="0.597" stop-color="#e1003b"/>
      <stop offset="0.688" stop-color="#d30067"/>
      <stop offset="0.776" stop-color="#c70088"/>
      <stop offset="0.859" stop-color="#bf00a0"/>
      <stop offset="0.936" stop-color="#bb00af"/>
      <stop offset="1" stop-color="#b900b4"/>
    </linearGradient>
    <filter id="Path_25247" x="0" y="0" width="62.043" height="62.043" filterUnits="userSpaceOnUse">
      <feOffset dy="6" input="SourceAlpha"/>
      <feGaussianBlur stdDeviation="5" result="blur"/>
      <feFlood flood-opacity="0.161"/>
      <feComposite operator="in" in2="blur"/>
      <feComposite in="SourceGraphic"/>
    </filter>
  </defs>
  <g id="insta" transform="translate(15 9)">
    <g transform="matrix(1, 0, 0, 1, -15, -9)" filter="url(#Path_25247)">
      <path id="Path_25247-2" data-name="Path 25247" d="M16.021,32.043h0A16.023,16.023,0,0,1,0,16.021H0A16.023,16.023,0,0,1,16.021,0h0A16.023,16.023,0,0,1,32.043,16.021h0A16.023,16.023,0,0,1,16.021,32.043Z" transform="translate(15 9)" fill="url(#linear-gradient)"/>
    </g>
    <g id="Group_11964" data-name="Group 11964" transform="translate(5.752 5.755)">
      <path id="Path_25248" data-name="Path 25248" d="M168.869,160.55c2.74,0,3.065.009,4.148.06a5.633,5.633,0,0,1,1.907.355,3.4,3.4,0,0,1,1.946,1.946,5.712,5.712,0,0,1,.355,1.907c.048,1.083.06,1.408.06,4.148s-.009,3.065-.06,4.148a5.633,5.633,0,0,1-.355,1.907,3.4,3.4,0,0,1-1.946,1.946,5.711,5.711,0,0,1-1.907.355c-1.083.048-1.408.06-4.148.06s-3.065-.009-4.148-.06a5.633,5.633,0,0,1-1.907-.355,3.4,3.4,0,0,1-1.946-1.946,5.711,5.711,0,0,1-.355-1.907c-.048-1.083-.06-1.408-.06-4.148s.009-3.065.06-4.148a5.633,5.633,0,0,1,.355-1.907,3.4,3.4,0,0,1,1.946-1.946,5.711,5.711,0,0,1,1.907-.355c1.083-.051,1.408-.06,4.148-.06m0-1.85c-2.788,0-3.137.012-4.232.063a7.546,7.546,0,0,0-2.494.478,4.956,4.956,0,0,0-1.817,1.182,5.054,5.054,0,0,0-1.185,1.82,7.591,7.591,0,0,0-.478,2.494c-.051,1.095-.063,1.444-.063,4.232s.012,3.137.063,4.232a7.546,7.546,0,0,0,.478,2.494,5.267,5.267,0,0,0,3,3,7.591,7.591,0,0,0,2.494.478c1.095.051,1.444.063,4.232.063s3.137-.012,4.232-.063a7.546,7.546,0,0,0,2.494-.478,5.267,5.267,0,0,0,3-3,7.592,7.592,0,0,0,.478-2.494c.051-1.095.063-1.444.063-4.232s-.012-3.137-.063-4.232a7.546,7.546,0,0,0-.478-2.494,5.267,5.267,0,0,0-3.005-3,7.591,7.591,0,0,0-2.494-.478c-1.092-.048-1.441-.06-4.229-.06Z" transform="translate(-158.6 -158.7)" fill="#fff"/>
      <path id="Path_25249" data-name="Path 25249" d="M329.973,324.7a5.273,5.273,0,1,0,5.273,5.273A5.274,5.274,0,0,0,329.973,324.7Zm0,8.7a3.423,3.423,0,1,1,3.423-3.423A3.423,3.423,0,0,1,329.973,333.4Z" transform="translate(-319.704 -319.707)" fill="#fff"/>
      <circle id="Ellipse_273" data-name="Ellipse 273" cx="1.233" cy="1.233" r="1.233" transform="translate(14.517 3.552)" fill="#fff"/>
    </g>
  </g>
</svg>
