<svg xmlns="http://www.w3.org/2000/svg" width="20" height="18" viewBox="0 0 20 18">
  <path id="like-icon" d="M4.882,0h.859A.606.606,0,0,0,5.85.034,5.377,5.377,0,0,1,9.738,2.4c.087.124.167.253.247.374.02,0,.029,0,.032-.006.03-.044.06-.088.088-.133A5.423,5.423,0,0,1,13.12.255C13.49.137,13.878.083,14.257,0h.859a1.148,1.148,0,0,0,.148.036A4.886,4.886,0,0,1,18.78,2.07a7.039,7.039,0,0,1,.227,7.558,14.022,14.022,0,0,1-2.626,2.92c-2.081,1.81-4.179,3.6-6.268,5.4-.09.078-.143.07-.23,0q-2.678-2.3-5.359-4.593a23.354,23.354,0,0,1-2.775-2.688A7.061,7.061,0,0,1,.183,7.712C.1,7.364.06,7.007,0,6.654V5.593c.012-.065.023-.131.036-.2A14.064,14.064,0,0,1,.37,3.77,5.115,5.115,0,0,1,3.856.21C4.19.11,4.54.069,4.882,0"/>
</svg>
