<svg id="linkdin" xmlns="http://www.w3.org/2000/svg" width="45" height="45" viewBox="0 0 45 45">
  <rect id="Rectangle_8729" data-name="Rectangle 8729" width="45" height="45" rx="10" fill="#1f1f1f"/>
  <g id="Group_73457" data-name="Group 73457" transform="translate(-796.112 -116.019)">
    <path id="Path_29030" data-name="Path 29030" d="M810.983,128.019a7.31,7.31,0,0,1,.737.256,2.533,2.533,0,0,1-1.205,4.816,2.547,2.547,0,0,1-2.351-2.066.8.8,0,0,0-.052-.136v-.667a.557.557,0,0,0,.049-.112,2.476,2.476,0,0,1,1.627-1.932c.171-.067.352-.107.528-.16Z" fill="#98999d"/>
    <path id="Path_29031" data-name="Path 29031" d="M841.272,157.924h4.152v1.916c.079-.094.117-.129.144-.171a4.471,4.471,0,0,1,3.612-2.069,6.5,6.5,0,0,1,2.676.314,4.05,4.05,0,0,1,2.609,2.963,10.325,10.325,0,0,1,.353,2.734c.018,2.7.009,5.4.01,8.1,0,.058-.009.116-.015.186h-4.347v-.3c0-2.136.014-4.272-.008-6.408a12.005,12.005,0,0,0-.175-2.137,1.953,1.953,0,0,0-2.421-1.641,2.246,2.246,0,0,0-2.152,2.232,13.067,13.067,0,0,0-.1,1.506c-.01,2.153,0,4.306,0,6.459v.319h-4.337Z" transform="translate(-25.703 -22.911)" fill="#98999d"/>
    <path id="Path_29032" data-name="Path 29032" d="M814.095,159.148v14h-4.326v-14Z" transform="translate(-1.284 -24.129)" fill="#98999d"/>
  </g>
</svg>
