<svg xmlns="http://www.w3.org/2000/svg" xmlns:xlink="http://www.w3.org/1999/xlink" width="262" height="37" viewBox="0 0 262 37">
  <defs>
    <clipPath id="clip-path">
      <rect id="Rectangle_1" data-name="Rectangle 1" width="262" height="37" transform="translate(0 0)" fill="none"/>
    </clipPath>
  </defs>
  <g id="logo-crosstower" transform="translate(0 -0.494)">
    <g id="Group_1" data-name="Group 1" transform="translate(0 0.494)" clip-path="url(#clip-path)">
      <path id="Path_1" data-name="Path 1" d="M39,11.2V22.376a2.928,2.928,0,0,0,2.911,2.941H55.886V23.179H41.911a.81.81,0,0,1-.8-.812V11.2a.81.81,0,0,1,.8-.812H55.886V8.25H41.911A2.939,2.939,0,0,0,39,11.2" transform="translate(8.243 1.294)"/>
      <path id="Path_2" data-name="Path 2" d="M70.4,8.256H56.424V25.323h2.115v-6.4h6.332l5.352,6.4h3.1l-5.351-6.4h2.44a2.928,2.928,0,0,0,2.911-2.941v-4.78A2.941,2.941,0,0,0,70.4,8.256m.8,7.722a.809.809,0,0,1-.8.812H58.532v-6.4H70.391a.809.809,0,0,1,.8.812Z" transform="translate(11.926 1.296)"/>
      <path id="Path_3" data-name="Path 3" d="M87.822,8.256H76.759A2.928,2.928,0,0,0,73.847,11.2V22.374a2.928,2.928,0,0,0,2.912,2.941H87.822a2.927,2.927,0,0,0,2.911-2.941V11.2a2.922,2.922,0,0,0-2.911-2.941m.8,14.118a.81.81,0,0,1-.8.812H76.759a.81.81,0,0,1-.8-.812V11.2a.809.809,0,0,1,.8-.812H87.822a.809.809,0,0,1,.8.812Z" transform="translate(15.609 1.296)"/>
      <path id="Path_4" data-name="Path 4" d="M217.947,15.977V11.2a2.928,2.928,0,0,0-2.912-2.941H201.061V25.323h2.115v-6.4h6.332l5.351,6.4h3.089l-5.352-6.4h2.44a2.944,2.944,0,0,0,2.912-2.948m-14.779-5.584h11.859a.809.809,0,0,1,.8.812v4.781a.81.81,0,0,1-.8.812H203.169Z" transform="translate(42.497 1.296)"/>
      <path id="Path_5" data-name="Path 5" d="M177.865,21.689,173.759,8.256H171.43l-4.12,13.456L163.189,8.256h-2.218l5.233,17.06h2.211l4.172-13.627,4.165,13.627h2.227l5.233-17.06H182Z" transform="translate(34.023 1.296)"/>
      <path id="Path_6" data-name="Path 6" d="M157.527,8.256H146.464a2.928,2.928,0,0,0-2.911,2.941V22.374a2.928,2.928,0,0,0,2.911,2.941h11.063a2.928,2.928,0,0,0,2.912-2.941V11.2a2.928,2.928,0,0,0-2.912-2.941m.8,14.118a.81.81,0,0,1-.8.812H146.457a.81.81,0,0,1-.8-.812V11.2a.809.809,0,0,1,.8-.812H157.52a.809.809,0,0,1,.8.812Z" transform="translate(30.342 1.296)"/>
      <path id="Path_7" data-name="Path 7" d="M126.123,10.393h7.386V25.316h2.115V10.393h7.386V8.256H126.123Z" transform="translate(26.658 1.296)"/>
      <path id="Path_8" data-name="Path 8" d="M105.246,8.256H94.183A2.929,2.929,0,0,0,91.271,11.2v3.708a2.928,2.928,0,0,0,2.912,2.941h11.063a.81.81,0,0,1,.8.813v3.715a.81.81,0,0,1-.8.812H94.183a.81.81,0,0,1-.8-.812V21.049H91.271v1.325a2.933,2.933,0,0,0,2.912,2.941h11.063a2.928,2.928,0,0,0,2.912-2.941V18.666a2.927,2.927,0,0,0-2.912-2.941H94.183a.81.81,0,0,1-.8-.812V11.2a.809.809,0,0,1,.8-.812h11.063a.809.809,0,0,1,.8.812V12.53h2.116V11.2a2.936,2.936,0,0,0-2.919-2.948" transform="translate(19.291 1.296)"/>
      <path id="Path_9" data-name="Path 9" d="M122.676,8.256H111.611A2.928,2.928,0,0,0,108.7,11.2v3.708a2.936,2.936,0,0,0,.855,2.085,2.88,2.88,0,0,0,2.064.864h11.056a.811.811,0,0,1,.8.813v3.708a.811.811,0,0,1-.8.812H111.611a.81.81,0,0,1-.8-.812V21.049h-2.116v1.325a2.927,2.927,0,0,0,2.911,2.941h11.072a2.928,2.928,0,0,0,2.91-2.941V18.666a2.927,2.927,0,0,0-2.91-2.941H111.611a.789.789,0,0,1-.568-.239.81.81,0,0,1-.234-.573V11.2a.809.809,0,0,1,.8-.812h11.065a.81.81,0,0,1,.8.812V12.53H125.6V11.2a2.944,2.944,0,0,0-2.919-2.948" transform="translate(22.974 1.296)"/>
      <path id="Path_10" data-name="Path 10" d="M183.623,16.789v8.527h16.894V23.178H185.738V17.854H198.4V15.717H185.738V10.393h14.779V8.256H183.623Z" transform="translate(38.811 1.296)"/>
      <path id="Path_11" data-name="Path 11" d="M15.429.5l3.683,2.263-2.1,1.131-1.587-.832L2.352,10.727v8.6l10.559,6.334-2.174,1.175L0,20.333V9.518Z" transform="translate(0 -0.344)" fill="#3c97f2"/>
      <path id="Path_12" data-name="Path 12" d="M19.81,3.265,4.469,11.951v6.123l2.052,1.164V13.082l13.289-7.3,7.21,4.07v1.63l2.306,1.265V8.634Z" transform="translate(0.945 0.241)" fill="#3c97f2"/>
      <path id="Path_13" data-name="Path 13" d="M13.13,34.093,9.447,31.83l2.1-1.133,1.587.844,13.089-7.676v-8.6L15.648,8.946l2.185-1.175,10.725,6.5V25.085Z" transform="translate(1.997 1.193)" fill="#3c97f2"/>
      <path id="Path_14" data-name="Path 14" d="M9.755,29.522l15.352-8.675V14.725l-2.052-1.176V19.7L9.755,27l-7.21-4.07V21.3L.239,20.049v4.1Z" transform="translate(0.05 2.414)" fill="#3c97f2"/>
    </g>
  </g>
</svg>
