<svg xmlns="http://www.w3.org/2000/svg" width="17.265" height="12.787" viewBox="0 0 17.265 12.787">
  <g id="menu-option-iocn" transform="translate(-164.037 -1118)">
    <g id="Group_73851" data-name="Group 73851" transform="translate(164.037 1118)">
      <path id="Path_30470" data-name="Path 30470" d="M57.329,6.972h-10.8a.986.986,0,0,1,0-1.972h10.8a.986.986,0,1,1,0,1.972" transform="translate(-41.05 -4.507)" fill="#1a1818"/>
      <path id="Path_30471" data-name="Path 30471" d="M2.957,1.479A1.479,1.479,0,1,1,1.479,0,1.479,1.479,0,0,1,2.957,1.479" transform="translate(0 0)" fill="#1a1818"/>
    </g>
    <g id="Group_73852" data-name="Group 73852" transform="translate(164.037 1122.915)">
      <path id="Path_30472" data-name="Path 30472" d="M57.329,52.627h-10.8a.986.986,0,0,1,0-1.972h10.8a.986.986,0,1,1,0,1.972" transform="translate(-41.05 -50.162)" fill="#1a1818"/>
      <path id="Path_30473" data-name="Path 30473" d="M2.957,47.134a1.479,1.479,0,1,1-1.479-1.479,1.479,1.479,0,0,1,1.479,1.479" transform="translate(0 -45.655)" fill="#1a1818"/>
    </g>
    <g id="Group_73853" data-name="Group 73853" transform="translate(164.037 1127.83)">
      <path id="Path_30474" data-name="Path 30474" d="M57.329,98.282h-10.8a.986.986,0,0,1,0-1.972h10.8a.986.986,0,1,1,0,1.972" transform="translate(-41.05 -95.817)" fill="#1a1818"/>
      <path id="Path_30475" data-name="Path 30475" d="M2.957,92.789A1.479,1.479,0,1,1,1.479,91.31a1.479,1.479,0,0,1,1.479,1.479" transform="translate(0 -91.31)" fill="#1a1818"/>
    </g>
  </g>
</svg>
