<svg xmlns="http://www.w3.org/2000/svg" width="30" height="30" viewBox="0 0 30 30">
  <g id="Music-icon" transform="translate(2279 -1002)">
    <circle id="Ellipse_336" data-name="Ellipse 336" cx="15" cy="15" r="15" transform="translate(-2279 1002)" fill="#ededed"/>
    <path id="Path_30640" data-name="Path 30640" d="M125.129,14a1.526,1.526,0,0,0-.227.017l-8.75,1.328a1.1,1.1,0,0,0-1.02.995v8.627c-1.8-.711-4.375,0-4.375,1.409,0,.946,1.236,1.686,2.812,1.686,1.795,0,2.813-.961,2.813-1.518V19.376l8.75-1.328v4.9c-1.8-.711-4.375,0-4.375,1.409,0,.946,1.236,1.686,2.813,1.686s2.812-.741,2.812-1.686V15.01A1.151,1.151,0,0,0,125.129,14Zm-11.56,13.051c-.894,0-1.563-.354-1.563-.674s.668-.675,1.563-.675,1.563.354,1.563.675S114.464,27.051,113.569,27.051Zm10-2.024c-.894,0-1.563-.354-1.563-.674s.668-.675,1.563-.675,1.563.354,1.563.675S124.464,25.027,123.569,25.027Zm1.562-8.009-8.75,1.331V16.34c-.062,0,.976-.148,8.75-1.328Z" transform="translate(-2383.83 995.602)" stroke="#000" stroke-width="0.3"/>
  </g>
</svg>
