<svg xmlns="http://www.w3.org/2000/svg" xmlns:xlink="http://www.w3.org/1999/xlink" width="38" height="38" viewBox="0 0 38 38">
  <defs>
    <clipPath id="clip-path">
      <rect id="Rectangle_29" data-name="Rectangle 29" width="20.386" height="19.768"/>
    </clipPath>
  </defs>
  <g id="nav-wallet" transform="translate(1161 107)">
    <g id="Group_3493" data-name="Group 3493" transform="translate(-1161 -107)">
      <circle id="Ellipse_260" data-name="Ellipse 260" cx="19" cy="19" r="19" fill="#f4f4f4"/>
    </g>
    <g id="Group_44" data-name="Group 44" transform="translate(-1152.193 -99.768)" clip-path="url(#clip-path)">
      <path id="Path_24" data-name="Path 24" d="M18.156,32.052H1.035C.213,31.786,0,31.488,0,30.6q0-6.231,0-12.461a1.174,1.174,0,0,1,1.286-1.292H17.924a1.161,1.161,0,0,1,1.282,1.291q0,1.4,0,2.794c0,.07-.006.141-.01.223h-.238q-3.234,0-6.468,0a1.953,1.953,0,0,0-2.015,1.985c-.013.864-.018,1.729.007,2.593a2.057,2.057,0,0,0,.2.808,1.881,1.881,0,0,0,1.81,1.116c2.156.007,4.312,0,6.468,0h.228a.527.527,0,0,1,.018.083q0,1.577,0,3.155a1.138,1.138,0,0,1-.287.751,1.334,1.334,0,0,1-.76.4" transform="translate(0 -12.284)"/>
      <path id="Path_25" data-name="Path 25" d="M51.1,39.645a1.2,1.2,0,0,1-.7.844,1.706,1.706,0,0,1-.561.1q-3.294.01-6.589,0A1.173,1.173,0,0,1,41.984,39.3q0-1.156,0-2.312a1.174,1.174,0,0,1,1.278-1.284h6.41a1.226,1.226,0,0,1,1.428.962Zm-7.1-1.5c0,.449.067.636.306.739a1.105,1.105,0,0,0,.9,0c.3-.136.315-.425.316-.718s-.037-.556-.32-.675a1.112,1.112,0,0,0-.905.01.584.584,0,0,0-.3.644" transform="translate(-30.714 -26.029)"/>
      <path id="Path_26" data-name="Path 26" d="M37.254,8.019H27.861a1.481,1.481,0,0,1,.153-.064Q31.722,6.93,35.43,5.909a1.138,1.138,0,0,1,1.485.859c.116.41.224.823.339,1.25" transform="translate(-20.383 -4.268)"/>
      <path id="Path_27" data-name="Path 27" d="M23.077,1.515c-.488.136-.952.266-1.416.394-2.178.6-4.354,1.213-6.538,1.791a6.109,6.109,0,0,1-1.18.082l-.015-.053c.046-.028.09-.06.137-.084Q17.545,1.9,21.026.161a1.148,1.148,0,0,1,1.664.565c.127.255.25.512.386.789" transform="translate(-10.189 0)"/>
    </g>
  </g>
</svg>
