<svg xmlns="http://www.w3.org/2000/svg" width="38" height="38" viewBox="0 0 38 38">
  <g id="notice-icon" transform="translate(-1392 187)">
    <g id="Group_74156" data-name="Group 74156" transform="translate(1392 -187)">
      <circle id="Ellipse_260" data-name="Ellipse 260" cx="19" cy="19" r="19" fill="#f4f4f4"/>
    </g>
    <g id="Group_74158" data-name="Group 74158" transform="translate(2500.965 -124.049)">
      <path id="Path_29031" data-name="Path 29031" d="M66.5,212.9a9.366,9.366,0,0,1-1.411-.481,3.63,3.63,0,0,1-1.883-2.522h7.4a8.758,8.758,0,0,1-.368.943,3.7,3.7,0,0,1-2.807,2.019.95.95,0,0,0-.132.041Z" transform="translate(-1156.854 -245.81)"/>
      <g id="Group_74157" data-name="Group 74157" transform="translate(-1100 -57)">
        <path id="Path_29029" data-name="Path 29029" d="M0,36.038a2.683,2.683,0,0,1,.884-1.289,6.59,6.59,0,0,0,2.125-4.878c.012-.925,0-1.85,0-2.775a7.02,7.02,0,0,1,7.677-7.036,7.184,7.184,0,0,1,5.423,3.163l.108.169c1.372,2.076.962,4.462.809,6.685.089.505.149,1.011.272,1.5a6.336,6.336,0,0,0,2.034,3.31,1.789,1.789,0,0,1,.679,1.876,1.825,1.825,0,0,1-1.766,1.33c-.07,0-.141,0-.212,0q-8.006,0-16.011,0a2.164,2.164,0,0,1-1.347-.4A1.858,1.858,0,0,1,0,36.6Z" transform="translate(0 -18.02)"/>
      </g>
    </g>
  </g>
</svg>
