<svg xmlns="http://www.w3.org/2000/svg" width="68.728" height="75.468" viewBox="0 0 68.728 75.468">
  <path id="Union_24" data-name="Union 24" d="M32.527,74.468a31.589,31.589,0,0,1-4.761-1.623,12.246,12.246,0,0,1-6.349-8.494H46.39a29.024,29.024,0,0,1-1.242,3.182,12.463,12.463,0,0,1-9.467,6.81,3.171,3.171,0,0,0-.464.125ZM60.294,60.935H6.829a7.315,7.315,0,0,1-4.543-1.354A6.272,6.272,0,0,1,0,55.9v-1.9a9.022,9.022,0,0,1,2.984-4.348,22.238,22.238,0,0,0,7.165-16.459c.042-3.118,0-6.24,0-9.358A23.653,23.653,0,0,1,27.757.779,22.3,22.3,0,0,1,33.872,0a22.3,22.3,0,0,1,6.1.781A23.649,23.649,0,0,1,57.579,23.833c0,3.121-.032,6.24,0,9.361a25.722,25.722,0,0,0,.2,2.936c.154.96.32,1.9.551,2.821q.2.778.442,1.53a22.321,22.321,0,0,0,5.971,9.169c.263.25.519.5.768.752a7.725,7.725,0,0,1,1.393,1.7A6.316,6.316,0,0,1,67.727,54v1.9a6.249,6.249,0,0,1-2.283,3.688,6.682,6.682,0,0,1-3.073,1.252,7.982,7.982,0,0,1-.839.09H60.9Z" transform="translate(0.5 0.501)" stroke="rgba(0,0,0,0)" stroke-miterlimit="10" stroke-width="1"/>
</svg>
