<svg xmlns="http://www.w3.org/2000/svg" width="28.072" height="28.059" viewBox="0 0 28.072 28.059">
  <path id="plus-icon" d="M2535.793,974.141c.138.042.278.079.414.126a2.459,2.459,0,0,1,1.667,2.337q0,4.369,0,8.739v.363h.332q4.383,0,8.766,0a2.46,2.46,0,0,1,.844,4.775,2.844,2.844,0,0,1-.909.148c-2.895.011-5.789.006-8.684.006h-.349v.346q0,4.342,0,8.684a2.465,2.465,0,1,1-4.928.124c-.006-2.931,0-5.862,0-8.793v-.361h-8.936a2.454,2.454,0,0,1-2.589-2.011.312.312,0,0,0-.04-.071v-.767a.313.313,0,0,0,.04-.071,2.452,2.452,0,0,1,2.589-2.011h8.936v-.362c0-2.913,0-5.826,0-8.74a2.371,2.371,0,0,1,1.293-2.166,5.241,5.241,0,0,1,.786-.3Z" transform="translate(-2521.379 -974.141)"/>
</svg>
