<svg xmlns="http://www.w3.org/2000/svg" width="22.058" height="22.4" viewBox="0 0 22.058 22.4">
  <g id="price-icon" transform="translate(-0.424 -0.024)">
    <rect id="Rectangle_4021" data-name="Rectangle 4021" width="22" height="22" transform="translate(0.424 0.424)" fill="none"/>
    <path id="Path_30484" data-name="Path 30484" d="M0,11.356a.231.231,0,0,0,.034-.063,2.006,2.006,0,0,1,.541-1.035Q3.9,6.764,7.234,3.271a2.715,2.715,0,0,1,2.041-.856c1.15,0,2.3,0,3.449,0a.275.275,0,0,0,.259-.135A5.168,5.168,0,0,1,16.7.035.864.864,0,0,0,16.823,0h.754a2.371,2.371,0,0,1,1.028.479,2.159,2.159,0,0,1,.689,2.013,5.185,5.185,0,0,1-.083.539.393.393,0,0,1-.484.33.417.417,0,0,1-.31-.5,7.761,7.761,0,0,0,.081-.785A1.174,1.174,0,0,0,17.309.815,4.326,4.326,0,0,0,13.993,2.3c-.024.026-.043.057-.088.116h.905a2,2,0,0,1,2.069,1.73A2.078,2.078,0,0,1,16.9,4.5c0,1.823,0,3.646,0,5.469a2.868,2.868,0,0,1-.93,2.184q-2.343,2.229-4.683,4.461c-.724.689-1.444,1.382-2.171,2.068a2.013,2.013,0,0,1-2.983-.042C4.414,16.922,2.7,15.2.971,13.485A2.9,2.9,0,0,1,0,11.96v-.6M12.4,3.23a.549.549,0,0,0-.075-.007H9.292a2.1,2.1,0,0,0-1.581.712Q4.452,7.369,1.184,10.793A1.2,1.2,0,0,0,1.2,12.559q2.777,2.784,5.561,5.562a1.22,1.22,0,0,0,1.758.014q3.442-3.277,6.884-6.554a2.083,2.083,0,0,0,.689-1.573c0-1.842,0-3.684,0-5.527a1.191,1.191,0,0,0-1.254-1.257c-.44-.007-.88,0-1.32,0a.2.2,0,0,0-.224.15q-.19.657-.378,1.315c-.039.135.007.191.15.233A2.019,2.019,0,1,1,11.932,4.9a.188.188,0,0,0,.163-.167c.093-.5.2-.991.309-1.508m-.332,2.5a1.158,1.158,0,0,0-.792,1.271A1.206,1.206,0,0,0,12.5,8.04a1.19,1.19,0,0,0,1.164-1.048,1.138,1.138,0,0,0-.774-1.253c0,.069-.008.135-.009.2,0,.3.006.59,0,.885a.392.392,0,0,1-.413.415.4.4,0,0,1-.389-.438c0-.351,0-.7,0-1.07" transform="translate(2.766 0.424)" fill="#1a1818" stroke="#000" stroke-width="0.8"/>
  </g>
</svg>
