<svg xmlns="http://www.w3.org/2000/svg" width="28.614" height="28.611" viewBox="0 0 28.614 28.611">
  <g id="price-tag" transform="translate(-1109.052 -347.16)">
    <path id="Path_29054" data-name="Path 29054" d="M1109.052,363.083c.051-.188.1-.377.152-.563a3.4,3.4,0,0,1,.867-1.436q6-6,11.995-12.008a6.188,6.188,0,0,1,4.45-1.9c2.69-.021,5.38-.024,8.069.013a3.268,3.268,0,0,1,3.055,3.032c.042,1.07.019,2.143.02,3.215,0,1.519-.006,3.037,0,4.555a6.555,6.555,0,0,1-2.018,4.857q-5.281,5.268-10.555,10.542c-.428.428-.859.854-1.284,1.284a3.382,3.382,0,0,1-2.018,1.048.388.388,0,0,0-.106.049h-.715a.393.393,0,0,0-.106-.049,3.373,3.373,0,0,1-1.995-1.028q-4.374-4.382-8.75-8.763a3.47,3.47,0,0,1-.909-1.478c-.058-.2-.1-.4-.155-.6Zm26.35-8.523h.023c0-1.3,0-2.6,0-3.9a1.129,1.129,0,0,0-1.247-1.259q-3.722,0-7.445,0a4.184,4.184,0,0,0-3.06,1.239q-6,6-11.993,12.01a1.1,1.1,0,0,0,0,1.661q4.405,4.417,8.816,8.827a1.09,1.09,0,0,0,1.66.009q6.019-6,12.029-12.015a3.9,3.9,0,0,0,1.214-2.7C1135.428,357.141,1135.4,355.851,1135.4,354.561Z"/>
    <path id="Path_29055" data-name="Path 29055" d="M1155.909,358.9a3.353,3.353,0,1,1-.018,6.706,3.353,3.353,0,0,1,.018-6.706Zm-.007,4.459a1.1,1.1,0,0,0,1.121-1.1,1.138,1.138,0,0,0-1.124-1.114,1.106,1.106,0,0,0-1.094,1.1A1.081,1.081,0,0,0,1155.9,363.363Z" transform="translate(-26.344 -7.112)"/>
  </g>
</svg>
