<svg xmlns="http://www.w3.org/2000/svg" width="22.957" height="22.94" viewBox="0 0 22.957 22.94">
  <g id="quantity-icon" transform="translate(-3231.126 -335.592)">
    <path id="Path_30465" data-name="Path 30465" d="M141.229,61.813a.357.357,0,0,0-.008-.064c0-.007,0-.015,0-.022a.355.355,0,0,0-.032-.078.347.347,0,0,0-.052-.067l-.016-.015a.339.339,0,0,0-.052-.04l-.011-.008-5.289-3.054V52.728s0-.009,0-.014a.357.357,0,0,0-.008-.064c0-.007,0-.015,0-.022a.355.355,0,0,0-.032-.078.349.349,0,0,0-.052-.067l-.017-.015a.377.377,0,0,0-.052-.04l-.011-.008-5.254-3.033a.357.357,0,0,0-.358,0l-5.253,3.033-.01.008a.358.358,0,0,0-.053.041l-.016.015a.355.355,0,0,0-.052.067.347.347,0,0,0-.032.078.216.216,0,0,0,0,.022.341.341,0,0,0-.008.064s0,.009,0,.014v5.736l-5.29,3.054-.01.008a.336.336,0,0,0-.053.041l-.016.015a.356.356,0,0,0-.052.067.347.347,0,0,0-.032.078.218.218,0,0,0,0,.022.342.342,0,0,0-.008.064s0,.009,0,.014v6.19a.358.358,0,0,0,.179.31l5.361,3.1.013.005a.358.358,0,0,0,.061.025l.021.007a.355.355,0,0,0,.084.011.345.345,0,0,0,.084-.011l.021-.007a.352.352,0,0,0,.061-.025l.013-.005,5.182-2.992,5.182,2.992.013.005a.358.358,0,0,0,.061.025l.021.007a.355.355,0,0,0,.084.011.345.345,0,0,0,.084-.011l.021-.007a.352.352,0,0,0,.061-.025l.013-.005,5.361-3.1a.358.358,0,0,0,.179-.31v-6.19a.118.118,0,0,0,0-.014Zm-5.716,2.7-4.646-2.682,4.646-2.682,4.646,2.682Zm-5.718-8.542v5.241l-4.539-2.62V53.347Zm5.253,2.62-4.539,2.62V55.967l4.539-2.62Zm-10.257.557,4.646,2.682-4.646,2.682-4.646-2.682Zm.358,5.983,4.646-2.682V67.81l-4.646,2.682Zm5-15.021,4.539,2.62-4.539,2.62-4.539-2.62ZM119.788,62.446l4.646,2.682v5.365l-4.646-2.682Zm10.721,0,4.646,2.682v5.365l-4.646-2.682Zm5.36,8.047V65.128l4.646-2.682V67.81Z" transform="translate(3112.453 286.663)" fill="#fff" stroke="#fff" stroke-width="0.8"/>
  </g>
</svg>
