<svg id="reload-button" xmlns="http://www.w3.org/2000/svg" xmlns:xlink="http://www.w3.org/1999/xlink" width="22.94" height="26.323" viewBox="0 0 22.94 26.323">
  <defs>
    <clipPath id="clip-path">
      <rect id="Rectangle_8849" data-name="Rectangle 8849" width="22.941" height="26.323" fill="#f45353"/>
    </clipPath>
  </defs>
  <g id="Group_73935" data-name="Group 73935" clip-path="url(#clip-path)">
    <path id="Path_30468" data-name="Path 30468" d="M0,16.185a3.768,3.768,0,0,1,.493-.9,1.56,1.56,0,0,1,2.645.746A10.553,10.553,0,0,0,4,18.624a8.05,8.05,0,0,0,5.292,4.235,8.07,8.07,0,0,0,8.135-2.31,7.8,7.8,0,0,0,2.207-4.378,8.147,8.147,0,0,0-1.8-6.656A8.125,8.125,0,0,0,13.3,6.693c-.554-.131-1.129-.171-1.729-.258-.007.144-.017.243-.017.343,0,.857,0,1.715-.007,2.572a.512.512,0,0,1-.141.371c-.063.045-.257-.034-.357-.107Q7.986,7.378,4.934,5.129c-.29-.213-.29-.309,0-.522Q8,2.355,11.069.108c.093-.068.273-.138.336-.1a.472.472,0,0,1,.141.346c.011.857.006,1.715.006,2.572v.318c.449.042.884.065,1.314.124a11.365,11.365,0,0,1,7.952,4.782,11.071,11.071,0,0,1,2.06,5.461,11.294,11.294,0,0,1-1.216,6.443,11.441,11.441,0,0,1-5.122,5.062,11.051,11.051,0,0,1-3.563,1.095c-.244.033-.488.071-.732.106H10.6c-.075-.016-.148-.036-.223-.048-.506-.079-1.024-.113-1.518-.241A11.443,11.443,0,0,1,.312,17.886C.181,17.465.1,17.027,0,16.6v-.412" transform="translate(0 0)" fill="#f45353"/>
  </g>
</svg>
