<svg xmlns="http://www.w3.org/2000/svg" width="19.767" height="19.708" viewBox="0 0 19.767 19.708">
  <g id="resend-icon" transform="translate(0.5 0.501)">
    <g id="Group_73916" data-name="Group 73916" transform="translate(0 0)">
      <path id="Path_29341" data-name="Path 29341" d="M117.668,68.369a.18.18,0,0,1,.03.043.87.87,0,0,0,.9.684c1.262.006,2.523.008,3.785,0a.938.938,0,0,0,.008-1.875c-.52-.01-1.041,0-1.562,0h-.222a.8.8,0,0,1,.05-.124,7.429,7.429,0,0,1,5.859-3.634,7.534,7.534,0,1,1-5.81,11.487,2.2,2.2,0,0,1-.293-.577.877.877,0,0,0-1.019-.561.942.942,0,0,0-.786.74.831.831,0,0,0,.129.666,9.182,9.182,0,0,0,6.459,4.9,9.334,9.334,0,1,0-1.852-17.724,8.569,8.569,0,0,0-3.741,2.86.268.268,0,0,1-.046.033c-.006-.053-.014-.1-.014-.14,0-.276,0-.551,0-.827a.865.865,0,0,0-.8-.86.912.912,0,0,0-1.032.6c-.013.039-.031.077-.047.115Z" transform="translate(-117.668 -61.63)" stroke="#000" stroke-width="1"/>
    </g>
  </g>
</svg>
