<svg xmlns="http://www.w3.org/2000/svg" width="24.365" height="17.923" viewBox="0 0 24.365 17.923">
  <g id="Sale-Type_iocn" data-name="Sale-Type iocn" transform="translate(-1.25 -5.145)">
    <g id="Group_12021" data-name="Group 12021" transform="translate(2 5.895)">
      <path id="Path_25263" data-name="Path 25263" d="M23,23.433h5.716V20.166h0a2.45,2.45,0,0,1,0-4.9h0V12H23" transform="translate(-5.851 -7.01)" fill="none" stroke="#000" stroke-linecap="round" stroke-linejoin="round" stroke-miterlimit="10" stroke-width="1.5"/>
      <path id="Path_25264" data-name="Path 25264" d="M16.7,12H2v3.266H2a2.45,2.45,0,0,1,0,4.9H2v3.266H16.7" transform="translate(-2 -7.01)" fill="none" stroke="#000" stroke-linecap="round" stroke-linejoin="round" stroke-miterlimit="10" stroke-width="1.5"/>
      <line id="Line_65" data-name="Line 65" y2="1.729" transform="translate(16.423 5.186)" fill="none" stroke="#000" stroke-linecap="round" stroke-linejoin="round" stroke-miterlimit="10" stroke-width="1.5"/>
      <line id="Line_66" data-name="Line 66" y2="1.729" transform="translate(16.423 14.694)" fill="none" stroke="#000" stroke-linecap="round" stroke-linejoin="round" stroke-miterlimit="10" stroke-width="1.5"/>
      <line id="Line_67" data-name="Line 67" x2="7.779" transform="translate(5.186 8.644)" fill="none" stroke="#000" stroke-linecap="round" stroke-linejoin="round" stroke-miterlimit="10" stroke-width="1.5"/>
      <line id="Line_68" data-name="Line 68" x2="4.322" transform="translate(8.644 11.237)" fill="none" stroke="#000" stroke-linecap="round" stroke-linejoin="round" stroke-miterlimit="10" stroke-width="1.5"/>
      <line id="Line_69" data-name="Line 69" y2="1.729" transform="translate(16.423 0)" fill="none" stroke="#000" stroke-linecap="round" stroke-linejoin="round" stroke-miterlimit="10" stroke-width="1.5"/>
      <line id="Line_70" data-name="Line 70" y2="3.457" transform="translate(16.423 8.644)" fill="none" stroke="#000" stroke-linecap="round" stroke-linejoin="round" stroke-miterlimit="10" stroke-width="1.5"/>
      <line id="Line_71" data-name="Line 71" x1="0.864" y2="0.864" transform="translate(19.016 1.729)" fill="none" stroke="#000" stroke-linecap="round" stroke-linejoin="round" stroke-miterlimit="10" stroke-width="1.5"/>
      <line id="Line_72" data-name="Line 72" x2="0.864" y2="0.864" transform="translate(12.965 1.729)" fill="none" stroke="#000" stroke-linecap="round" stroke-linejoin="round" stroke-miterlimit="10" stroke-width="1.5"/>
    </g>
  </g>
</svg>
