<svg id="settings-icon" xmlns="http://www.w3.org/2000/svg" xmlns:xlink="http://www.w3.org/1999/xlink" width="25.9" height="25.618" viewBox="0 0 25.9 25.618">
  <defs>
    <clipPath id="clip-path">
      <rect id="Rectangle_3939" data-name="Rectangle 3939" width="25.9" height="25.618"/>
    </clipPath>
  </defs>
  <g id="Group_3412" data-name="Group 3412" clip-path="url(#clip-path)">
    <path id="Path_1110" data-name="Path 1110" d="M250.221,147.066c-.195.456-.611.539-1.031.6a.3.3,0,0,0-.281.259c-.077.292-.191.574-.268.866a.382.382,0,0,0,.054.283c.1.143.242.258.356.392a.689.689,0,0,1,.031.964c-.222.286-.457.563-.7.831a.651.651,0,0,1-.948.131.96.96,0,0,0-1.237-.067.866.866,0,0,0-.587.935c.03.478-.257.74-.736.78-.3.026-.6.054-.906.083a.705.705,0,0,1-.87-.634.929.929,0,0,0-.79-.9.815.815,0,0,0-.989.226c-.4.433-.729.417-1.187.035-.227-.189-.454-.376-.675-.572a.671.671,0,0,1-.145-1.006.912.912,0,0,0,.077-1.211.774.774,0,0,0-.794-.485c-.632.023-.876-.239-.916-.875-.017-.277-.049-.554-.063-.831a.67.67,0,0,1,.612-.808.872.872,0,0,0,.832-.756.917.917,0,0,0-.255-1.124.671.671,0,0,1-.034-1.014q.316-.394.649-.775a.672.672,0,0,1,1.006-.135.731.731,0,0,0,1.07.011,1.718,1.718,0,0,1,.522-.247.234.234,0,0,0,.173-.263,3.615,3.615,0,0,1,.027-.5.687.687,0,0,1,.651-.655c.343-.04.687-.069,1.032-.094a.68.68,0,0,1,.821.6c.058.483.285.643.737.794.5.167.844.2,1.219-.226a.617.617,0,0,1,.894,0q.428.334.83.7a.66.66,0,0,1,.115.97.85.85,0,0,0-.054,1.083c.227.442.427.673.953.633.42-.032.662.267.709.7.029.267.064.533.1.8Zm-6.3,1.925a2.23,2.23,0,1,0-2.214-2.19,2.219,2.219,0,0,0,2.214,2.19" transform="translate(-224.321 -132.638)"/>
    <path id="Path_1111" data-name="Path 1111" d="M3.307,1.418a5.636,5.636,0,0,1,.537.287c.222.152.414.432.644.463s.479-.191.723-.293a3.947,3.947,0,0,1,.615-.226.323.323,0,0,0,.285-.339,5.59,5.59,0,0,1,.114-.8.6.6,0,0,1,.592-.5c.6-.017,1.2-.02,1.794,0,.357.013.578.269.638.67.043.283-.016.636.135.832s.5.22.766.329a3.223,3.223,0,0,1,.52.255.28.28,0,0,0,.4-.041c.156-.141.325-.268.494-.393a.712.712,0,0,1,1.024.052q.557.533,1.09,1.091a.709.709,0,0,1,.047,1.024c-.14.19-.285.377-.439.555a.253.253,0,0,0-.04.314c.168.376.309.763.474,1.139A.3.3,0,0,0,13.9,6c.223.043.45.062.676.085a.744.744,0,0,1,.769.818c.008.489.009.978,0,1.466a.735.735,0,0,1-.754.8c-.234.025-.471.045-.7.092a.329.329,0,0,0-.2.171q-.259.574-.488,1.161a.328.328,0,0,0,.021.262c.141.209.309.4.464.6a.735.735,0,0,1-.055,1.1q-.514.523-1.037,1.037a.725.725,0,0,1-1.062.059c-.208-.158-.417-.316-.613-.488a.244.244,0,0,0-.312-.026c-.368.165-.74.323-1.121.453a.3.3,0,0,0-.234.3c-.02.268-.049.537-.094.8a.7.7,0,0,1-.747.64q-.771.013-1.542,0a.709.709,0,0,1-.758-.66c-.043-.283-.075-.568-.1-.853a.274.274,0,0,0-.208-.271c-.354-.132-.694-.3-1.048-.432a.388.388,0,0,0-.307.031c-.224.149-.424.332-.639.495a.721.721,0,0,1-1.062-.052Q2.22,13.076,1.7,12.54a.725.725,0,0,1-.057-1.063c.163-.215.327-.429.5-.632a.269.269,0,0,0,.034-.339c-.148-.32-.285-.646-.409-.976A.275.275,0,0,0,1.5,9.32c-.277-.021-.553-.054-.828-.1a.707.707,0,0,1-.669-.749C0,7.953,0,7.431.007,6.908a.7.7,0,0,1,.631-.73c.265-.046.534-.074.8-.095a.262.262,0,0,0,.266-.207c.131-.381.279-.757.443-1.125a.25.25,0,0,0-.038-.311c-.164-.192-.319-.392-.472-.593a.725.725,0,0,1,.066-1.062c.347-.356.692-.715,1.059-1.05a2.985,2.985,0,0,1,.541-.317m4.4,8.922A2.737,2.737,0,1,0,4.97,7.6,2.746,2.746,0,0,0,7.7,10.341" transform="translate(0 0)"/>
    <path id="Path_1112" data-name="Path 1112" d="M91.708,282.951a5.652,5.652,0,0,1,.372-.6.38.38,0,0,0,.053-.426c-.15-.443-.334-.781-.89-.786a.518.518,0,0,1-.47-.519,4.69,4.69,0,0,1,0-.9.652.652,0,0,1,.608-.608,1.146,1.146,0,0,1,.25-.03c.186.011.262-.083.312-.251a2.856,2.856,0,0,1,.228-.559.283.283,0,0,0-.04-.357,1.473,1.473,0,0,1-.282-.5c-.124-.5.717-1.4,1.227-1.306a1.553,1.553,0,0,1,.567.3.28.28,0,0,0,.335.034,5.025,5.025,0,0,1,.677-.273.292.292,0,0,0,.224-.288c.075-.636.295-.823.942-.818l.329,0a.738.738,0,0,1,.847.786c.012.213.082.328.287.367a.408.408,0,0,1,.142.051.823.823,0,0,0,1.116-.031.512.512,0,0,1,.656.067,5.185,5.185,0,0,1,.594.582.682.682,0,0,1-.044,1,.388.388,0,0,0-.06.551.124.124,0,0,1,.021.046.8.8,0,0,0,.8.744c.3.02.461.314.479.683.008.168,0,.337,0,.505-.015.553-.234.812-.784.85-.245.017-.369.1-.41.332a.071.071,0,0,1-.007.024.859.859,0,0,0,.043,1.176.539.539,0,0,1-.078.72,5.132,5.132,0,0,1-.593.584.665.665,0,0,1-.958-.068.553.553,0,0,0-.662-.084c-.435.153-.738.321-.753.853a.545.545,0,0,1-.571.479,6.167,6.167,0,0,1-.833,0,.694.694,0,0,1-.64-.67,2.469,2.469,0,0,1-.023-.277.24.24,0,0,0-.212-.263.151.151,0,0,1-.048-.016c-.418-.242-.811-.361-1.222.052a.485.485,0,0,1-.637-.011,7.478,7.478,0,0,1-.756-.771,1.27,1.27,0,0,1-.132-.374m4.226-.99a1.823,1.823,0,1,0-1.861-1.735,1.824,1.824,0,0,0,1.861,1.735" transform="translate(-85.675 -259.678)"/>
  </g>
</svg>
