<svg xmlns="http://www.w3.org/2000/svg" width="24.318" height="15.511" viewBox="0 0 24.318 15.511">
  <g id="sort-by-icon" transform="translate(-70.888 -101.97)">
    <path id="Path_30461" data-name="Path 30461" d="M85.145,101.97H71.9a1.016,1.016,0,0,0,0,2.033h13.24a1.016,1.016,0,0,0,0-2.033Z"/>
    <path id="Path_30462" data-name="Path 30462" d="M82.214,254.68H71.9a1.016,1.016,0,0,0,0,2.033h10.31a1.016,1.016,0,0,0,0-2.033Z" transform="translate(0 -146.057)"/>
    <path id="Path_30463" data-name="Path 30463" d="M79.538,407.4H71.9a1.016,1.016,0,0,0,0,2.033h7.634a1.016,1.016,0,0,0,0-2.033Z" transform="translate(0 -292.125)"/>
    <path id="Path_30464" data-name="Path 30464" d="M456.463,113.449a1.016,1.016,0,0,0-1.437,0l-1.173,1.173V103.628a1.016,1.016,0,0,0-2.033,0v11l-1.173-1.175a1.016,1.016,0,1,0-1.437,1.437l2.906,2.91a1.016,1.016,0,0,0,1.437,0l2.91-2.91a1.016,1.016,0,0,0,0-1.437Z" transform="translate(-361.555 -0.614)"/>
  </g>
</svg>
