<svg xmlns="http://www.w3.org/2000/svg" width="21.041" height="21.041" viewBox="0 0 21.041 21.041">
  <g id="Status-icon" transform="translate(-3350 -158.492)">
    <path id="Path_30479" data-name="Path 30479" d="M80.521,1.263a9.258,9.258,0,1,1-9.258,9.258,9.258,9.258,0,0,1,9.258-9.258m0-1.263A10.521,10.521,0,1,0,91.041,10.521,10.524,10.524,0,0,0,80.521,0Z" transform="translate(3280 158.492)"/>
    <path id="Path_30480" data-name="Path 30480" d="M137.365,112a.837.837,0,0,0-.8.589.2.2,0,0,0-.021.084l-2.3,8.206-2.409-5.418c-.011-.021-.021-.053-.032-.074a.838.838,0,0,0-.737-.442.862.862,0,0,0-.694.358v.021l-1.452,2.146h-2.073a.842.842,0,1,0,0,1.683h2.525a.862.862,0,0,0,.694-.358v-.032l.842-1.241,2.735,6.165c.011.021.021.053.032.074a.836.836,0,0,0,1.136.337.851.851,0,0,0,.4-.494l2.272-8.1,1.178,3.051c.011.032.021.053.032.084a.837.837,0,0,0,.778.515h2.525a.842.842,0,1,0,0-1.683h-1.946l-1.873-4.882c-.011-.032-.021-.053-.032-.084a.855.855,0,0,0-.778-.5Z" transform="translate(3226.102 50.7)"/>
  </g>
</svg>
