<svg id="tel" xmlns="http://www.w3.org/2000/svg" width="45" height="45" viewBox="0 0 45 45">
  <rect id="Rectangle_8729" data-name="Rectangle 8729" width="45" height="45" rx="10" fill="#1f1f1f"/>
  <path id="Path_29034" data-name="Path 29034" d="M644.447,67.468a10.581,10.581,0,0,1-2.787-1.8c-1.1-.763-2.169-1.574-3.246-2.37a.2.2,0,0,0-.308.016c-.871.839-1.75,1.67-2.622,2.507a1.388,1.388,0,0,1-.745.388c-.141.024-.212,0-.2-.172.062-.813.11-1.628.167-2.442.054-.783.125-1.565.164-2.349a1.1,1.1,0,0,1,.385-.851q4.444-3.957,8.863-7.94.456-.409.906-.824c.08-.074.165-.16.116-.279-.055-.134-.188-.116-.3-.108a1.133,1.133,0,0,0-.512.2q-6.118,3.827-12.235,7.658a.542.542,0,0,1-.507.063c-1.694-.535-3.392-1.058-5.088-1.584a1.827,1.827,0,0,1-.6-.291.536.536,0,0,1-.071-.888,2.4,2.4,0,0,1,.925-.549q2-.77,4.008-1.535l16.787-6.426a1.953,1.953,0,0,1,.691-.168.957.957,0,0,1,1,.725c.018.055-.007.128.063.163V49.3a.279.279,0,0,0-.043.075q-1.045,4.9-2.088,9.8-.752,3.526-1.51,7.05a1.389,1.389,0,0,1-1.029,1.241Z" transform="translate(-616.625 -34.721)" fill="#98999d"/>
</svg>
