<svg xmlns="http://www.w3.org/2000/svg" width="38" height="38" viewBox="0 0 38 38">
  <g id="theme-icon" transform="translate(1054 107)">
    <g id="Group_74156" data-name="Group 74156" transform="translate(-1054 -107)">
      <circle id="Ellipse_260" data-name="Ellipse 260" cx="19" cy="19" r="19" fill="#f4f4f4"/>
    </g>
    <path id="Path_30643" data-name="Path 30643" d="M89.094,25.215a6.919,6.919,0,1,0,2.027-4.89A6.917,6.917,0,0,0,89.094,25.215Zm6.982-5.1a5.171,5.171,0,0,1,0,10.341Zm.44-3.232v-3.1a.582.582,0,1,0-1.162,0v3.1a.582.582,0,0,0,1.162,0Zm7.939.612h0a.582.582,0,0,0-.822-.823l-2.184,2.194a.582.582,0,0,0,.822.822Zm-.109,8.23h3.1a.582.582,0,1,0,0-1.162h-3.1a.582.582,0,0,0,0,1.162Zm-2.807,4.932a.579.579,0,0,0,0,.822l2.194,2.194h0a.582.582,0,1,0,.823-.823l-2.194-2.194a.579.579,0,0,0-.822,0Zm-6.036,2.9v3.1a.582.582,0,1,0,1.162,0v-3.1a.582.582,0,0,0-1.162,0Zm-7.949-.613a.582.582,0,0,0,.413.992.575.575,0,0,0,.41-.169l2.194-2.194h0a.582.582,0,0,0-.822-.822Zm-3.566-7.658a.582.582,0,0,0,.582.58h3.1a.582.582,0,0,0,0-1.162h-3.1a.582.582,0,0,0-.582.582Zm6.492-5.5a.579.579,0,0,0,0-.822L88.286,16.76h0a.582.582,0,0,0-.823.823l2.194,2.194h0a.585.585,0,0,0,.822,0Z" transform="translate(-1131.03 -113.215)"/>
  </g>
</svg>
