<svg id="tw-icon" xmlns="http://www.w3.org/2000/svg" width="45" height="45" viewBox="0 0 45 45">
  <rect id="Rectangle_8729" data-name="Rectangle 8729" width="45" height="45" rx="10" fill="#1f1f1f"/>
  <path id="Path_24779" data-name="Path 24779" d="M267.835,2.448a7.846,7.846,0,0,1-1.91,2.05.881.881,0,0,0-.362.773C265.38,10.9,263,15.288,257.9,17.824a13.44,13.44,0,0,1-13.143-.506.614.614,0,0,1-.2-.186,10.169,10.169,0,0,0,6.89-2.047c-.4-.074-.711-.115-1.014-.193a4.808,4.808,0,0,1-3.3-2.79c-.126-.274-.2-.44.249-.38a3.639,3.639,0,0,0,1.561-.1c-.056-.173-.223-.141-.34-.185a4.839,4.839,0,0,1-3.318-4.217c-.048-.385.064-.424.39-.267a3.661,3.661,0,0,0,1.564.381c-.023-.228-.206-.286-.323-.392a4.877,4.877,0,0,1-1.153-5.666c.148-.312.23-.361.48-.075a13.721,13.721,0,0,0,8.894,4.7c.771.1.771.1.731-.642A4.842,4.842,0,0,1,263.983,1.3a.644.644,0,0,0,.668.151A11.518,11.518,0,0,0,267.284.4a4.97,4.97,0,0,1-1.917,2.549,3.41,3.41,0,0,0,1.274-.2c.387-.094.762-.235,1.142-.356l.051.052" transform="translate(-234.134 12.521)" fill="#98999d"/>
</svg>
