<svg xmlns="http://www.w3.org/2000/svg" xmlns:xlink="http://www.w3.org/1999/xlink" width="62.043" height="62.043" viewBox="0 0 62.043 62.043">
  <defs>
    <filter id="Ellipse_53" x="0" y="0" width="62.043" height="62.043" filterUnits="userSpaceOnUse">
      <feOffset dy="6" input="SourceAlpha"/>
      <feGaussianBlur stdDeviation="5" result="blur"/>
      <feFlood flood-opacity="0.141"/>
      <feComposite operator="in" in2="blur"/>
      <feComposite in="SourceGraphic"/>
    </filter>
  </defs>
  <g id="tw" transform="translate(-9432.748 3762.148)">
    <g transform="matrix(1, 0, 0, 1, 9432.75, -3762.15)" filter="url(#Ellipse_53)">
      <circle id="Ellipse_53-2" data-name="Ellipse 53" cx="16.021" cy="16.021" r="16.021" transform="translate(15 9)" fill="#007fff"/>
    </g>
    <path id="Path_24779" data-name="Path 24779" d="M261.435,1.775a5.689,5.689,0,0,1-1.385,1.486.639.639,0,0,0-.262.56c-.133,4.081-1.859,7.263-5.556,9.1a9.745,9.745,0,0,1-9.529-.367.445.445,0,0,1-.146-.135,7.373,7.373,0,0,0,5-1.484c-.289-.054-.515-.083-.735-.14a3.486,3.486,0,0,1-2.392-2.023c-.091-.2-.142-.319.18-.275a2.639,2.639,0,0,0,1.132-.071c-.041-.125-.161-.1-.247-.134a3.509,3.509,0,0,1-2.406-3.058c-.034-.279.046-.307.283-.194a2.655,2.655,0,0,0,1.134.276c-.016-.165-.149-.208-.234-.284a3.536,3.536,0,0,1-.836-4.108c.107-.226.167-.262.348-.054a9.948,9.948,0,0,0,6.449,3.406c.559.07.559.072.53-.466A3.511,3.511,0,0,1,258.642.942a.467.467,0,0,0,.484.109,8.351,8.351,0,0,0,1.909-.759,3.6,3.6,0,0,1-1.39,1.848A2.472,2.472,0,0,0,260.569,2c.28-.068.553-.171.828-.258l.037.037" transform="translate(9211.136 -3743.934)" fill="#fff"/>
  </g>
</svg>
