<svg xmlns="http://www.w3.org/2000/svg" xmlns:xlink="http://www.w3.org/1999/xlink" width="38" height="38" viewBox="0 0 38 38">
  <defs>
    <clipPath id="clip-path">
      <rect id="Rectangle_41" data-name="Rectangle 41" width="17.94" height="21.517"/>
    </clipPath>
  </defs>
  <g id="user-icon" transform="translate(-3362 893)">
    <g id="user-icon-2" data-name="user-icon" transform="translate(3362 -893)">
      <circle id="Ellipse_260" data-name="Ellipse 260" cx="19" cy="19" r="19" fill="#f4f4f4"/>
    </g>
    <g id="Group_62" data-name="Group 62" transform="translate(3372.03 -885.259)" clip-path="url(#clip-path)">
      <path id="Path_56" data-name="Path 56" d="M0,254.843v-1.261c.028-.277.053-.553.084-.83a9.409,9.409,0,0,1,1-3.549,3.982,3.982,0,0,1,3.037-2.167,1.79,1.79,0,0,1,1.414.292,5.123,5.123,0,0,0,.759.487,9.734,9.734,0,0,0,1.41.63,4.612,4.612,0,0,0,3.842-.561c.356-.208.688-.457,1.048-.658a1.468,1.468,0,0,1,.643-.219,3.932,3.932,0,0,1,1.974.481,4.4,4.4,0,0,1,1.956,2.36,11.161,11.161,0,0,1,.719,5.231,3.163,3.163,0,0,1-1.381,2.35,4.043,4.043,0,0,1-2.44.692q-5.018,0-10.036,0a6.188,6.188,0,0,1-.9-.047A3.37,3.37,0,0,1,.2,255.717a8.276,8.276,0,0,1-.2-.874" transform="translate(0 -236.604)"/>
      <path id="Path_57" data-name="Path 57" d="M92.527,0c.28.056.561.1.838.169A5.218,5.218,0,0,1,97.155,4.38a5.033,5.033,0,0,1-.74,3.574,5.07,5.07,0,0,1-4.047,2.395A5.183,5.183,0,0,1,90.966.107c.2-.04.4-.072.6-.107h.966" transform="translate(-83.201)"/>
    </g>
  </g>
</svg>
