<svg id="user-Notification-iocn" xmlns="http://www.w3.org/2000/svg" xmlns:xlink="http://www.w3.org/1999/xlink" width="19.754" height="21.558" viewBox="0 0 19.754 21.558">
  <defs>
    <clipPath id="clip-path">
      <rect id="Rectangle_3962" data-name="Rectangle 3962" width="19.754" height="21.558"/>
    </clipPath>
  </defs>
  <g id="Group_3491" data-name="Group 3491" clip-path="url(#clip-path)">
    <path id="Path_1152" data-name="Path 1152" d="M0,34.357A2.4,2.4,0,0,1,.791,33.2a5.9,5.9,0,0,0,1.9-4.366c.011-.828,0-1.656,0-2.483a6.283,6.283,0,0,1,6.87-6.3,6.326,6.326,0,0,0,5.674,8.965c.08.452.133.9.243,1.343A5.671,5.671,0,0,0,17.3,33.327a1.6,1.6,0,0,1,.608,1.679A1.633,1.633,0,0,1,16.33,36.2c-.063,0-.126,0-.189,0q-7.165,0-14.33,0a1.937,1.937,0,0,1-1.206-.359A1.663,1.663,0,0,1,0,34.862Z" transform="translate(0 -18.231)"/>
    <path id="Path_1153" data-name="Path 1153" d="M66.15,212.582a8.385,8.385,0,0,1-1.263-.431,3.249,3.249,0,0,1-1.685-2.257h6.623a7.839,7.839,0,0,1-.329.844,3.307,3.307,0,0,1-2.512,1.807.848.848,0,0,0-.118.037Z" transform="translate(-57.52 -191.024)"/>
    <path id="Path_1154" data-name="Path 1154" d="M128.856,4.487A4.488,4.488,0,1,1,124.356,0a4.477,4.477,0,0,1,4.5,4.487" transform="translate(-109.102 0)"/>
  </g>
</svg>
