<svg xmlns="http://www.w3.org/2000/svg" width="30" height="30" viewBox="0 0 30 30">
  <g id="video-icon" transform="translate(2279 -1002)">
    <circle id="Ellipse_336" data-name="Ellipse 336" cx="15" cy="15" r="15" transform="translate(-2279 1002)" fill="#ededed"/>
    <path id="Path_30639" data-name="Path 30639" d="M144.35,134.91a1.407,1.407,0,0,0-1.471.064l-2.472,1.6v-1.108a1.055,1.055,0,0,0-1.066-1.066H129.3a1.055,1.055,0,0,0-1.066,1.066v8.951a1.055,1.055,0,0,0,1.066,1.066h10.059a1.055,1.055,0,0,0,1.066-1.066v-1.087l2.472,1.6a1.483,1.483,0,0,0,.789.234,1.538,1.538,0,0,0,.682-.171,1.472,1.472,0,0,0,.767-1.3V136.21a1.491,1.491,0,0,0-.789-1.3Zm-5.626,8.866h-8.781V136.1h8.781Zm4.689-.554-3.005-1.939v-2.707l3.005-1.939Z" transform="translate(-2400.372 877.06)"/>
  </g>
</svg>
