<svg xmlns="http://www.w3.org/2000/svg" xmlns:xlink="http://www.w3.org/1999/xlink" width="32" height="32" viewBox="0 0 32 32">
  <defs>
    <clipPath id="clip-path">
      <rect id="Rectangle_3953" data-name="Rectangle 3953" width="22.6" height="14.19" transform="translate(0 0)" fill="#fff"/>
    </clipPath>
  </defs>
  <g id="wallet-connect-icon" transform="translate(0 0.5)">
    <rect id="wallet-connect-icon-2" data-name="wallet-connect-icon" width="32" height="32" rx="8" transform="translate(0 -0.5)" fill="#3b99fb"/>
    <g id="Group_3451" data-name="Group 3451" transform="translate(5 9)">
      <g id="Group_3451-2" data-name="Group 3451" clip-path="url(#clip-path)">
        <path id="Path_1141" data-name="Path 1141" d="M22.6,48.821a.54.54,0,0,1-.187.43q-2.962,2.962-5.923,5.926c-.351.351-.534.343-.914-.036q-2.012-2.01-4.02-4.024c-.239-.239-.248-.239-.5.014Q9.4,52.779,7.745,54.424c-.282.281-.557.569-.847.842a.409.409,0,0,1-.659,0c-.443-.423-.87-.863-1.3-1.3L.769,49.818c-.191-.19-.382-.378-.57-.571a.493.493,0,0,1-.01-.783q.621-.642,1.26-1.265a.48.48,0,0,1,.76.01q1.808,1.8,3.609,3.61c.19.191.387.376.568.575.135.148.237.126.369-.006Q8.229,49.9,9.711,48.425c.388-.388.771-.78,1.161-1.167.317-.314.542-.328.861-.015.647.635,1.28,1.284,1.919,1.927.66.663,1.313,1.332,1.986,1.982.423.409.44.4.857-.018q1.892-1.892,3.779-3.789c.44-.442.609-.439,1.052.015.358.367.722.726,1.086,1.087a.479.479,0,0,1,.187.374" transform="translate(0 -41.244)" fill="#fff"/>
        <path id="Path_1142" data-name="Path 1142" d="M39.982,0a9.4,9.4,0,0,1,6.561,2.674c.187.18.374.36.55.551a.439.439,0,0,1-.011.666c-.48.492-.968.978-1.453,1.465-.156.157-.3.143-.451-.017a8.543,8.543,0,0,0-1.92-1.6,6.618,6.618,0,0,0-8.224,1.346c-.523.568-.525.562-1.067,0-.376-.387-.764-.761-1.14-1.147a.476.476,0,0,1,0-.692A9.9,9.9,0,0,1,36.971.489,10.362,10.362,0,0,1,39.982,0" transform="translate(-28.665 0)" fill="#fff"/>
      </g>
    </g>
  </g>
</svg>
