<svg xmlns="http://www.w3.org/2000/svg" xmlns:xlink="http://www.w3.org/1999/xlink" width="20.512" height="19.89" viewBox="0 0 20.512 19.89">
  <defs>
    <clipPath id="clip-path">
      <rect id="Rectangle_8767" data-name="Rectangle 8767" width="20.512" height="19.89"/>
    </clipPath>
  </defs>
  <g id="wallet-icon" clip-path="url(#clip-path)">
    <path id="Path_29073" data-name="Path 29073" d="M18.268,32.146H1.041C.214,31.878,0,31.578,0,30.69q0-6.269,0-12.538a1.181,1.181,0,0,1,1.294-1.3H18.035a1.168,1.168,0,0,1,1.29,1.3q0,1.406,0,2.811c0,.071-.006.142-.011.224h-.24q-3.254,0-6.508,0a1.966,1.966,0,0,0-2.027,2c-.013.869-.018,1.74.007,2.609a2.069,2.069,0,0,0,.2.813,1.893,1.893,0,0,0,1.821,1.123c2.169.007,4.339,0,6.508,0H19.3a.53.53,0,0,1,.018.084q0,1.587,0,3.175a1.145,1.145,0,0,1-.289.755,1.342,1.342,0,0,1-.764.4" transform="translate(0 -12.256)"/>
    <path id="Path_29074" data-name="Path 29074" d="M51.156,39.67a1.212,1.212,0,0,1-.7.85,1.717,1.717,0,0,1-.565.1q-3.315.01-6.629,0a1.18,1.18,0,0,1-1.277-1.3q0-1.163,0-2.326a1.181,1.181,0,0,1,1.286-1.292h6.449a1.233,1.233,0,0,1,1.437.968Zm-7.145-1.508c0,.452.068.64.308.743a1.112,1.112,0,0,0,.91,0c.3-.136.317-.428.318-.722s-.037-.56-.322-.679a1.119,1.119,0,0,0-.911.01.588.588,0,0,0-.3.648" transform="translate(-30.645 -25.969)"/>
    <path id="Path_29075" data-name="Path 29075" d="M37.312,8.032H27.861a1.49,1.49,0,0,1,.154-.065q3.731-1.03,7.462-2.058a1.145,1.145,0,0,1,1.494.865c.117.413.225.828.341,1.258" transform="translate(-20.336 -4.259)"/>
    <path id="Path_29076" data-name="Path 29076" d="M23.133,1.525c-.491.137-.958.268-1.425.4-2.192.6-4.381,1.22-6.578,1.8a6.147,6.147,0,0,1-1.187.082l-.015-.053c.046-.028.09-.061.138-.085q3.5-1.754,7-3.507a1.155,1.155,0,0,1,1.675.569c.128.256.252.515.388.794" transform="translate(-10.166 0)"/>
  </g>
</svg>
