<svg xmlns="http://www.w3.org/2000/svg" width="30" height="30" viewBox="0 0 30 30">
  <g id="xrp-icon" transform="translate(1769 -1018)">
    <circle id="Ellipse_337" data-name="Ellipse 337" cx="15" cy="15" r="15" transform="translate(-1769 1018)" fill="#ededed"/>
    <g id="Layer_2" data-name="Layer 2" transform="translate(-1761.671 1026.648)">
      <g id="Layer_1" data-name="Layer 1">
        <path id="Path_30482" data-name="Path 30482" d="M14.006,0h2.217L11.609,4.569a4.312,4.312,0,0,1-6.053,0L.94,0H3.159L6.665,3.471a2.73,2.73,0,0,0,3.833,0Z" transform="translate(-0.912)" stroke="#000" stroke-width="0.2"/>
        <path id="Path_30483" data-name="Path 30483" d="M2.219,235.025H0l4.644-4.6a4.312,4.312,0,0,1,6.053,0l4.644,4.6H13.124l-3.536-3.5a2.73,2.73,0,0,0-3.833,0Z" transform="translate(0 -222.32)" stroke="#000" stroke-width="0.2"/>
      </g>
    </g>
  </g>
</svg>
