<svg id="xumm-wallet-icon" xmlns="http://www.w3.org/2000/svg" width="31.783" height="14.056" viewBox="0 0 31.783 14.056">
  <path id="Path_29107" data-name="Path 29107" d="M-615.27-17.863c-.921-.927-1.774-1.778-2.617-2.638a10.014,10.014,0,0,1-.808-.914,1.21,1.21,0,0,1-.042-1.6,10.061,10.061,0,0,1,1.523-1.473,1.154,1.154,0,0,1,1.548.121c.848.755,1.658,1.554,2.474,2.344.338.327.652.68.989,1.033l2.617-2.6c.048-.048.09-.1.141-.147.556-.484,1.073-1.192,1.914-.916a3.438,3.438,0,0,1,2.141,2.108,1.19,1.19,0,0,1-.367,1.259c-.885.937-1.8,1.851-2.7,2.768-.19.192-.409.354-.638.55.668.68,1.273,1.29,1.871,1.907.507.524,1.037,1.03,1.5,1.592a1.255,1.255,0,0,1,.009,1.842A8.162,8.162,0,0,1-607-11.4a1.213,1.213,0,0,1-1.641-.026c-.733-.629-1.426-1.3-2.114-1.982-.457-.45-.875-.94-1.428-1.539-.93.98-1.761,1.87-2.61,2.741a7.536,7.536,0,0,1-.923.8,1.232,1.232,0,0,1-1.6.02,9.3,9.3,0,0,1-1.357-1.287,1.2,1.2,0,0,1,.013-1.719c.893-1,1.852-1.937,2.787-2.9C-615.691-17.486-615.486-17.661-615.27-17.863Z" transform="translate(619.033 25.151)"/>
  <path id="Path_29108" data-name="Path 29108" d="M-472.5-21.154l2.631-2.856c1.242-1.348,2.471-2.709,3.729-4.042a2.423,2.423,0,0,1,3.118-.365,2.356,2.356,0,0,1,.892,2.951,2.752,2.752,0,0,1-.506.755q-4.044,4.411-8.1,8.806a2.442,2.442,0,0,1-3.69.068q-2.174-2.219-4.317-4.468a2.385,2.385,0,0,1,0-3.464,2.507,2.507,0,0,1,3.526.116C-474.352-22.8-473.432-22-472.5-21.154Z" transform="translate(493.714 28.824)" fill="#002aff"/>
</svg>
