<svg id="ytb" xmlns="http://www.w3.org/2000/svg" width="45" height="45" viewBox="0 0 45 45">
  <rect id="Rectangle_8729" data-name="Rectangle 8729" width="45" height="45" rx="10" fill="#1f1f1f"/>
  <path id="Path_29035" data-name="Path 29035" d="M716.793,250.1v7.614c-.04.235-.067.473-.122.7a4.913,4.913,0,0,1-4.9,3.887q-6.874.007-13.748,0a5.161,5.161,0,0,1-1.128-.112,4.9,4.9,0,0,1-3.885-4.849c-.014-2.289-.007-4.579,0-6.868a4.788,4.788,0,0,1,.917-2.89,4.843,4.843,0,0,1,4.1-2.073q6.874-.008,13.748,0,.174,0,.348.008a4.9,4.9,0,0,1,4.336,3.2A13.136,13.136,0,0,1,716.793,250.1ZM701.63,253.9q0,1.519,0,3.038c0,.419.153.516.531.336q3.106-1.48,6.209-2.966c.118-.056.279-.2.271-.293a.516.516,0,0,0-.272-.321q-3.105-1.588-6.22-3.155c-.357-.18-.518-.079-.519.325Q701.628,252.385,701.63,253.9Z" transform="translate(-682.688 -231.277)" fill="#98999d"/>
</svg>
