<svg xmlns="http://www.w3.org/2000/svg" xmlns:xlink="http://www.w3.org/1999/xlink" width="62" height="62" viewBox="0 0 62 62">
  <defs>
    <linearGradient id="linear-gradient" x1="0.5" x2="0.5" y2="1" gradientUnits="objectBoundingBox">
      <stop offset="0" stop-color="#c12025"/>
      <stop offset="1" stop-color="#ce0b12"/>
    </linearGradient>
    <filter id="Ellipse_53" x="0" y="0" width="62" height="62" filterUnits="userSpaceOnUse">
      <feOffset dy="6" input="SourceAlpha"/>
      <feGaussianBlur stdDeviation="5" result="blur"/>
      <feFlood flood-opacity="0.141"/>
      <feComposite operator="in" in2="blur"/>
      <feComposite in="SourceGraphic"/>
    </filter>
  </defs>
  <g id="yub" transform="translate(-9388 3762)">
    <g transform="matrix(1, 0, 0, 1, 9388, -3762)" filter="url(#Ellipse_53)">
      <circle id="Ellipse_53-2" data-name="Ellipse 53" cx="16" cy="16" r="16" transform="translate(15 9)" fill="url(#linear-gradient)"/>
    </g>
    <g id="_317714_video_youtube_icon" data-name="317714_video_youtube_icon" transform="translate(9410.548 -3743.934)">
      <path id="Path_25252" data-name="Path 25252" d="M17.932,6.932a4.355,4.355,0,0,0-.72-1.919A2.5,2.5,0,0,0,15.4,4.2C12.862,4,9.06,4,9.06,4H9.052s-3.8,0-6.336.2A2.5,2.5,0,0,0,.9,5.013a4.363,4.363,0,0,0-.72,1.919A31.123,31.123,0,0,0,0,10.059v1.465a31.111,31.111,0,0,0,.181,3.127A4.346,4.346,0,0,0,.9,16.568a2.962,2.962,0,0,0,2,.826c1.449.148,6.159.194,6.159.194s3.806-.007,6.341-.2a2.509,2.509,0,0,0,1.815-.819,4.354,4.354,0,0,0,.72-1.917,31.127,31.127,0,0,0,.181-3.127V10.059A31.127,31.127,0,0,0,17.932,6.932Z" transform="translate(0 -4)" fill="#fff"/>
      <path id="Path_25253" data-name="Path 25253" d="M12,10v6.794l5.662-3.4Z" transform="translate(-5.206 -6.603)" fill="#c12025"/>
    </g>
  </g>
</svg>
