<svg xmlns="http://www.w3.org/2000/svg" width="35" height="37" viewBox="0 0 35 37" fill="none">
<path d="M15.9957 0.5L19.8135 2.84588L17.6401 4.01882L15.9957 3.15636L2.43788 11.1025V20.0145L13.3853 26.5807L11.1314 27.7996L0 21.0609V9.84902L15.9957 0.5Z" fill="#3C97F2"/>
<path d="M21.5156 3.97278L5.61194 12.9768V19.3245L7.73933 20.5319V14.1498L21.5156 6.58314L28.9902 10.8034V12.4938L31.3821 13.8048V9.53849L21.5156 3.97278Z" fill="#3C97F2"/>
<path d="M15.6818 36.9185L11.864 34.5726L14.0374 33.3997L15.6818 34.2736L29.2511 26.316V17.404L18.2922 10.8493L20.5576 9.63037L31.6775 16.369V27.581L15.6818 36.9185Z" fill="#3C97F2"/>
<path d="M10.1657 33.4457L26.0809 24.4532V18.1055L23.9535 16.8866V23.2688L10.1657 30.8354L2.69107 26.6151V24.9247L0.299194 23.6253V27.88L10.1657 33.4457Z" fill="#3C97F2"/>
</svg>